<?xml version="1.0" standalone="no"?>
<!DOCTYPE svg PUBLIC "-//W3C//DTD SVG 20010904//EN"
 "http://www.w3.org/TR/2001/REC-SVG-20010904/DTD/svg10.dtd">
<svg version="1.0" xmlns="http://www.w3.org/2000/svg"
 width="550.000000pt" height="413.000000pt" viewBox="0 0 550.000000 413.000000"
 preserveAspectRatio="xMidYMid meet">

<g transform="translate(0.000000,413.000000) scale(0.100000,-0.100000)"
fill="#000000" stroke="none">
<path d="M590 4116 c0 -42 -117 -136 -251 -202 -92 -46 -282 -114 -318 -114
l-21 0 0 -534 0 -533 83 -6 c45 -4 129 -18 186 -32 57 -15 107 -22 110 -18 8
12 48 14 77 2 17 -6 23 -6 19 1 -3 6 -1 10 5 10 25 0 2 -36 -30 -47 -19 -7
-30 -12 -23 -12 7 -1 41 -28 76 -61 35 -33 66 -58 68 -56 11 11 9 -168 -2
-202 -13 -41 -57 -109 -103 -160 -73 -80 -288 -211 -408 -248 l-58 -18 0 -943
0 -943 243 0 c176 0 246 3 255 12 9 9 12 9 12 0 0 -9 269 -12 1180 -12 1031 0
1180 2 1180 15 0 8 -6 12 -13 9 -22 -8 -92 12 -89 26 2 8 -4 11 -18 7 -12 -3
-29 1 -40 10 -22 19 -88 45 -112 44 -10 0 -18 4 -18 10 0 5 -5 9 -11 9 -5 0
-7 -4 -4 -10 3 -6 -1 -7 -9 -4 -9 3 -16 10 -16 15 0 5 -6 9 -14 9 -8 0 -16 3
-18 8 -7 15 -72 44 -76 33 -7 -21 -20 -11 -27 20 -5 21 -10 27 -15 19 -6 -9
-16 -8 -43 5 -20 9 -35 22 -34 28 1 7 -11 11 -30 11 -23 -1 -33 3 -33 13 0 8
-4 11 -10 8 -5 -3 -10 1 -10 9 0 9 -4 16 -9 16 -4 0 -21 18 -36 40 -15 22 -33
40 -40 40 -16 0 -51 40 -60 68 -3 12 -10 22 -15 22 -10 0 -80 144 -80 164 0 7
-13 29 -30 47 -16 19 -30 40 -30 47 0 7 -5 10 -10 7 -6 -3 -13 1 -16 9 -3 9
-10 13 -15 10 -5 -3 -9 -1 -9 5 0 15 35 31 67 31 16 0 39 7 51 16 20 14 89 31
152 37 32 3 81 -29 73 -48 -4 -11 2 -15 21 -15 20 0 26 -5 26 -22 0 -17 3 -19
9 -10 7 12 12 12 30 0 12 -7 24 -21 27 -30 3 -10 11 -18 19 -18 18 0 26 -50 9
-57 -21 -8 2 -33 30 -33 11 0 33 -6 48 -14 15 -8 41 -17 58 -21 17 -4 43 -18
57 -31 17 -16 39 -24 62 -25 20 0 30 -3 24 -6 -26 -10 -13 -25 16 -18 32 7 53
-11 30 -26 -11 -6 -10 -9 3 -14 10 -4 21 -4 27 -1 5 4 24 -7 42 -24 25 -22 36
-27 46 -18 9 7 13 7 13 0 0 -26 30 -41 62 -31 45 12 51 11 44 -6 -4 -11 3 -15
27 -17 18 -1 39 -2 47 -4 8 -1 21 -2 28 -3 6 -1 12 -8 12 -17 0 -11 -6 -14
-20 -9 -30 10 -24 -2 11 -20 24 -13 28 -19 19 -30 -7 -9 -8 -20 -2 -32 5 -10
16 -30 23 -46 8 -19 16 -24 23 -17 14 14 26 13 21 -3 -3 -7 4 -13 19 -13 17
-1 23 2 19 12 -3 8 -2 14 1 14 4 0 11 -12 17 -27 l11 -28 16 30 c9 17 15 37
14 47 -4 23 17 33 25 11 4 -10 15 -24 25 -31 10 -7 25 -26 33 -42 13 -25 13
-29 -3 -36 -9 -4 -31 -8 -47 -8 -17 -1 -41 -11 -54 -23 l-24 -22 26 -10 c14
-6 44 -22 66 -36 35 -22 52 -25 125 -25 47 0 88 5 91 10 11 19 84 50 115 50
36 0 40 -22 8 -44 -22 -15 -20 -16 30 -16 28 0 52 3 52 6 0 3 -9 17 -20 32
-20 25 -20 25 -1 44 14 12 33 17 62 16 29 -1 44 3 51 15 11 21 61 22 78 2 7
-9 18 -14 24 -12 6 2 23 -5 38 -15 23 -16 26 -23 18 -38 -12 -23 -13 -30 -1
-30 5 0 12 8 15 18 3 9 4 5 2 -10 -3 -27 -1 -28 39 -28 l43 0 -24 52 c-14 29
-29 60 -34 69 -24 43 22 99 81 99 15 0 32 7 39 15 7 9 29 15 50 15 22 0 40 6
43 13 4 9 7 9 18 -1 20 -19 49 -14 58 11 13 34 12 42 -7 42 -9 0 -17 7 -17 15
0 10 8 14 25 12 22 -2 23 -1 7 9 -10 6 -24 8 -32 6 -8 -4 -15 4 -18 20 -4 21
-2 24 17 19 11 -3 29 -6 38 -6 10 0 17 -6 15 -12 -1 -7 9 -14 23 -16 27 -4 90
-47 90 -62 0 -4 -10 -6 -22 -2 l-22 5 22 -23 c12 -13 22 -32 22 -42 0 -13 8
-18 25 -18 14 0 25 -4 25 -8 0 -5 10 -19 22 -32 16 -17 23 -40 26 -80 l4 -57
-41 -16 c-23 -9 -41 -19 -41 -22 0 -3 84 -5 186 -5 l185 0 -21 30 c-18 25 -25
28 -36 19 -11 -9 -14 -8 -14 5 0 8 -13 22 -30 31 -16 8 -33 21 -37 27 -4 7
-29 32 -55 56 -38 33 -53 41 -72 36 -13 -3 -27 -1 -30 5 -4 7 1 11 14 11 12 0
18 4 15 10 -4 6 -21 8 -39 5 -31 -6 -33 -5 -33 24 0 17 4 31 8 31 4 0 10 12
14 27 9 38 -21 90 -57 97 -21 4 -26 9 -21 23 4 10 13 24 21 32 7 7 11 19 8 27
-3 8 8 15 35 19 44 8 50 29 15 49 -11 6 -28 19 -38 28 -17 18 -28 20 -95 20
-18 0 -33 5 -33 11 0 5 -15 7 -35 4 -20 -3 -35 -2 -35 4 0 6 -8 6 -20 -1 -16
-9 -20 -8 -20 5 0 8 -5 15 -11 15 -5 0 -7 -4 -4 -10 10 -16 -11 -12 -25 5 -7
8 -19 15 -26 15 -8 0 -14 9 -14 20 0 11 4 20 9 20 6 0 9 9 8 19 0 11 -4 18 -7
16 -3 -2 -12 1 -20 6 -13 8 -13 10 0 18 9 7 17 6 21 -1 10 -16 28 0 22 20 -5
22 48 64 55 44 2 -7 10 -12 18 -12 17 0 34 -40 34 -82 l0 -30 20 23 19 24 1
-23 c0 -13 -4 -20 -10 -17 -5 3 -10 2 -10 -4 0 -23 26 -21 100 6 22 9 100 11
100 3 0 -4 13 -7 29 -7 51 0 74 -42 37 -69 -11 -7 -16 -17 -12 -21 4 -4 11 -2
15 5 13 22 38 3 39 -29 0 -18 10 -38 23 -50 23 -20 44 -26 34 -9 -3 6 -3 10 2
11 4 0 21 2 36 4 22 3 27 0 23 -11 -3 -9 -6 -17 -6 -20 0 -2 -8 -1 -17 2 -17
5 -17 5 0 -9 9 -8 17 -22 17 -31 0 -9 8 -16 19 -16 10 0 22 -7 25 -16 7 -19
-14 -42 -34 -36 -10 3 -12 1 -5 -6 6 -5 20 -13 32 -17 18 -5 22 -3 17 9 -3 9
-1 16 5 16 6 0 11 -5 11 -12 0 -6 7 -4 18 5 23 21 32 21 32 2 0 -8 7 -15 15
-15 8 0 15 7 15 15 0 8 5 15 11 15 6 0 8 -8 4 -19 -4 -15 3 -26 32 -45 21 -14
45 -26 54 -26 9 0 22 -7 29 -15 16 -19 32 -19 28 -1 -2 8 1 14 7 13 5 -1 8
-12 7 -24 -2 -13 1 -23 7 -23 6 0 11 -7 11 -15 0 -8 8 -14 18 -13 21 3 102
-22 119 -37 7 -5 19 -16 28 -23 19 -16 14 -39 -6 -33 -8 2 -22 3 -31 3 -10 0
-18 3 -18 9 0 5 -4 9 -9 9 -5 0 -7 -9 -4 -20 4 -15 0 -20 -16 -20 -11 0 -21
-6 -22 -12 0 -7 -5 -3 -12 10 -8 18 -8 25 2 31 9 6 8 11 -3 21 -13 10 -20 9
-41 -4 -21 -14 -29 -14 -48 -5 -12 7 -58 24 -102 38 -63 21 -80 30 -81 46 -2
48 -5 55 -26 75 -12 11 -25 20 -30 20 -10 0 -5 -29 11 -58 7 -13 11 -26 8 -28
-5 -6 -115 45 -122 56 -17 28 -135 35 -135 9 0 -6 9 -8 20 -4 16 5 31 -4 63
-38 61 -65 111 -99 124 -86 16 16 53 -7 65 -42 9 -27 38 -41 38 -19 0 6 11 10
25 10 14 0 25 -4 25 -10 0 -17 18 -11 23 8 3 12 5 10 6 -7 1 -16 5 -21 16 -17
9 3 15 0 15 -10 0 -8 6 -17 14 -20 8 -3 12 -12 9 -20 -4 -10 0 -12 11 -8 9 3
16 12 16 20 0 11 5 11 25 2 25 -11 25 -28 -1 -28 -16 0 -64 -47 -64 -61 0 -5
124 -9 275 -9 l275 0 0 40 c0 27 -4 40 -14 40 -7 0 -16 9 -19 20 -3 12 -14 20
-26 20 -19 0 -20 3 -11 20 9 18 5 26 -29 60 -46 43 -51 55 -21 47 24 -6 25 -3
4 28 -10 15 -12 25 -5 25 6 0 18 -14 26 -31 9 -17 22 -28 29 -26 16 6 28 -1
49 -33 17 -24 18 -19 16 151 -1 97 -4 181 -8 185 -3 5 -15 14 -26 20 -11 6
-20 19 -20 29 0 25 -43 39 -64 21 -9 -8 -32 -19 -51 -24 -19 -6 -26 -11 -15
-11 11 -1 15 -4 10 -10 -6 -5 -40 -3 -83 6 -64 13 -75 13 -90 0 -9 -8 -34 -17
-55 -20 -32 -5 -38 -3 -35 11 2 9 -4 22 -13 27 -9 6 -34 23 -56 38 -37 26 -44
27 -96 19 -31 -5 -54 -5 -51 0 3 4 0 8 -6 8 -6 0 -8 5 -5 10 3 6 0 13 -8 16
-10 3 -13 13 -9 27 5 20 4 20 -9 7 -8 -8 -18 -23 -22 -32 -7 -20 -37 -25 -37
-7 0 6 7 9 15 5 10 -3 15 1 15 13 0 22 -29 21 -61 -3 -15 -11 -18 -15 -7 -12
10 3 20 1 23 -4 10 -15 -12 -20 -42 -9 -26 10 -27 12 -10 23 17 13 25 32 8 22
-5 -4 -12 6 -15 22 -4 15 -17 32 -29 37 -12 6 -35 34 -50 63 -31 56 -37 60
-61 36 -10 -9 -16 -11 -16 -4 0 7 -8 9 -20 5 -35 -11 -22 14 15 29 36 15 47
36 20 36 -8 0 -15 7 -15 16 0 15 2 15 23 1 19 -12 26 -12 40 -2 18 13 24 55 7
55 -5 0 -10 4 -10 9 0 11 57 -16 66 -31 4 -7 2 -8 -4 -4 -7 4 -17 4 -23 1 -11
-7 25 -38 48 -41 16 -3 17 48 2 63 -19 19 8 25 49 13 43 -14 71 -36 32 -26
-24 7 -24 6 -6 -8 23 -18 36 -20 36 -6 0 6 5 10 11 10 6 0 9 -6 6 -13 -3 -8 4
-14 20 -15 14 -1 21 2 18 8 -3 6 -1 10 4 10 10 0 15 -14 12 -32 0 -5 4 -8 10
-8 5 0 7 -5 4 -10 -11 -17 5 -49 27 -56 12 -4 16 -9 10 -13 -16 -10 0 -27 26
-28 30 -2 26 28 -6 42 -30 13 -28 28 3 23 29 -6 33 9 8 29 -13 10 -14 16 -6
19 7 3 35 23 63 46 46 37 53 39 82 29 43 -15 47 -13 19 10 -21 17 -23 23 -13
37 7 9 15 24 19 32 4 8 14 20 22 26 13 10 13 14 2 28 -7 9 -24 16 -37 16 -13
0 -24 3 -24 8 0 9 77 8 113 -2 31 -9 32 -13 13 -35 -8 -9 -16 -27 -18 -41 -4
-32 -19 -49 -37 -42 -9 3 -12 0 -9 -9 3 -8 -4 -34 -15 -58 -16 -36 -17 -45 -6
-52 11 -7 10 -9 -3 -9 -9 0 -19 6 -21 13 -3 7 -6 5 -6 -5 -1 -10 4 -18 11 -18
6 0 4 -8 -6 -19 -15 -16 -15 -19 -1 -24 24 -10 17 -27 -11 -27 -20 0 -24 4
-20 18 5 16 0 18 -41 17 -36 0 -48 -4 -48 -15 0 -8 5 -14 10 -13 6 1 10 -12
11 -28 1 -28 -1 -29 -31 -23 -22 4 -41 0 -58 -11 -16 -10 -34 -14 -47 -10 -14
5 -20 2 -20 -10 0 -9 -4 -13 -10 -10 -5 3 -7 0 -4 -9 3 -8 12 -12 20 -9 9 3
14 -2 14 -13 1 -18 2 -18 13 -2 7 9 25 20 40 23 15 4 27 12 27 19 0 18 20 -17
20 -36 0 -9 -8 -19 -17 -21 -10 -3 13 -5 50 -6 38 0 66 -5 63 -10 -3 -5 15
-16 39 -26 52 -19 110 -13 101 12 -4 9 -1 13 6 10 7 -2 13 -14 12 -26 0 -15 5
-21 20 -21 18 0 21 6 21 40 0 31 -6 46 -27 65 -28 26 -37 55 -18 55 6 0 10 -7
10 -15 0 -8 5 -15 10 -15 6 0 10 9 10 20 0 11 5 20 10 20 6 0 10 7 10 15 0 9
7 18 16 22 10 4 14 16 12 37 -3 35 -4 35 76 17 60 -13 106 -5 106 19 0 5 11
10 25 10 25 0 25 1 25 85 l0 84 -51 25 c-44 21 -55 23 -73 12 -30 -18 -60 -14
-64 9 -4 17 -2 18 12 6 12 -10 16 -10 16 -2 0 7 7 19 16 28 12 12 28 14 80 9
62 -6 64 -6 64 16 0 17 -3 19 -9 10 -6 -10 -10 -8 -14 8 -5 19 -10 21 -39 15
-18 -4 -37 -11 -43 -16 -5 -5 -23 -9 -40 -9 -29 1 -29 1 -10 16 12 10 15 18 9
21 -6 2 -20 10 -30 18 -18 14 -18 15 6 35 14 11 35 20 47 20 12 0 25 5 28 10
4 6 11 8 16 5 5 -4 9 -1 9 4 0 6 12 11 26 11 14 0 23 -4 19 -10 -4 -6 -11 -8
-16 -5 -5 4 -9 -3 -9 -14 0 -12 5 -21 10 -21 6 0 10 -6 10 -14 0 -7 7 -19 15
-26 13 -11 15 1 15 101 0 111 0 114 -27 135 -24 19 -26 24 -14 38 7 9 20 16
27 16 19 0 21 946 1 953 -9 4 -9 6 1 6 9 1 12 33 12 124 0 123 0 124 -25 135
-32 15 -58 15 -72 1 -8 -8 -26 -7 -66 1 -51 12 -59 11 -102 -9 -26 -12 -55
-19 -65 -16 -27 8 -14 42 21 54 16 5 33 21 38 35 10 25 51 37 118 34 18 0 39
5 48 12 28 23 13 79 -20 75 -5 0 -27 -7 -48 -14 -22 -7 -52 -11 -68 -7 -18 3
-43 -1 -64 -11 -28 -13 -37 -14 -50 -3 -19 15 -19 36 -1 47 7 4 21 22 29 39
14 28 23 32 62 36 25 2 45 0 45 -4 0 -14 75 -21 115 -10 35 10 44 9 67 -8 36
-26 38 -26 38 15 0 27 -4 35 -17 35 -15 0 -16 2 -3 10 8 5 11 10 5 10 -5 0 -4
5 3 12 9 9 12 137 12 515 l0 503 -1031 0 -1032 0 6 -57 c5 -46 11 -62 32 -79
31 -25 26 -31 -58 -68 -55 -24 -57 -26 -55 -61 2 -25 9 -37 23 -41 48 -13 193
-91 205 -109 7 -11 14 -41 14 -66 1 -25 6 -52 12 -60 23 -30 24 -37 1 -37 -12
0 -40 -3 -63 -7 -40 -7 -42 -6 -64 31 -23 39 -54 74 -65 74 -10 0 -5 -38 10
-66 16 -31 22 -100 6 -75 -6 9 -11 10 -15 2 -4 -6 -4 -16 0 -22 4 -7 -2 -9
-14 -7 -12 2 -27 -5 -34 -15 -12 -17 -15 -16 -53 3 -21 11 -40 20 -41 20 0 0
-4 -32 -8 -71 -8 -86 -16 -102 -66 -134 -22 -14 -40 -31 -40 -38 0 -6 -22 -36
-49 -64 -49 -55 -68 -61 -116 -43 -35 13 -47 5 -33 -25 16 -34 -6 -59 -45 -51
-22 5 -60 -10 -180 -72 -84 -43 -183 -89 -222 -101 -38 -13 -98 -37 -133 -52
-41 -19 -80 -29 -111 -29 -26 0 -71 -7 -100 -16 -59 -17 -99 -12 -108 14 -4 9
-19 33 -35 53 -15 20 -28 41 -28 47 0 10 26 20 75 28 55 9 115 35 126 56 9 17
8 19 -8 15 -47 -14 -84 -18 -103 -12 -16 5 -20 15 -20 51 0 57 -17 74 -72 74
-38 1 -71 9 -130 35 -13 5 -20 1 -27 -18 -14 -37 -32 -38 -69 -3 -31 29 -37
31 -114 32 -72 0 -83 3 -96 22 -8 12 -23 22 -34 22 -18 0 -20 -5 -14 -32 4
-22 1 -37 -10 -49 -14 -16 -15 -21 -4 -35 12 -13 11 -17 -1 -25 -8 -5 -19 -9
-25 -9 -16 0 -25 28 -11 33 9 3 8 8 -2 20 -18 22 -34 21 -56 -3 -16 -17 -26
-19 -69 -14 -28 4 -66 12 -83 20 -34 13 -47 7 -38 -18 3 -8 -1 -21 -9 -28 -13
-10 -17 -9 -22 4 -7 19 -49 21 -61 4 -4 -7 -13 -29 -19 -48 -9 -30 -14 -35
-38 -32 -29 3 -60 -14 -50 -29 3 -5 13 -9 23 -9 10 0 34 -15 54 -32 19 -18 59
-50 87 -71 57 -42 79 -43 118 -6 13 12 47 27 75 35 28 7 55 20 59 29 14 24 26
18 49 -26 18 -37 24 -41 48 -36 35 7 71 -2 71 -17 0 -6 -23 -27 -51 -46 l-52
-35 -136 -1 c-152 -1 -177 -6 -205 -41 -16 -22 -25 -24 -65 -20 -25 3 -64 10
-86 16 -22 6 -72 11 -112 11 -49 0 -97 8 -150 25 -43 14 -100 25 -128 25 -63
0 -98 18 -100 49 -3 35 -34 56 -112 76 -90 24 -158 58 -210 106 -23 21 -47 39
-52 39 -18 0 -73 82 -83 123 -6 28 -5 63 2 106 9 52 8 66 -3 80 -8 9 -19 41
-26 73 -11 52 -10 62 13 134 33 100 81 154 137 154 21 0 40 6 42 13 4 10 6 10
6 0 1 -7 6 -13 13 -13 6 0 4 7 -5 18 -25 27 -21 50 13 82 58 54 185 48 235
-12 29 -34 31 -53 10 -95 -22 -44 -26 -45 -140 -23 -25 5 -36 -4 -65 -55 -23
-40 -30 -63 -26 -81 4 -14 0 -37 -9 -54 -15 -28 -14 -33 2 -60 9 -17 23 -30
29 -30 12 0 23 -30 24 -65 1 -23 71 -103 113 -130 15 -9 27 -24 27 -31 0 -16
39 -34 75 -34 18 0 22 4 18 19 -3 13 7 34 27 59 29 37 34 39 63 31 18 -5 37
-16 43 -24 13 -18 30 -19 73 -4 29 10 32 15 27 39 -6 31 5 47 52 79 17 12 32
29 32 36 0 8 9 23 21 34 12 11 18 24 15 30 -7 11 -81 9 -93 -3 -3 -3 -40 -6
-82 -6 -62 0 -78 -3 -97 -21 -13 -13 -39 -23 -61 -24 -60 -5 -134 -22 -146
-34 -32 -32 -89 21 -69 64 9 19 6 27 -13 45 -20 18 -22 27 -14 42 10 18 17 19
66 13 64 -8 103 -23 103 -40 0 -7 9 -20 19 -29 19 -17 21 -17 42 8 12 14 31
26 41 26 10 0 38 5 63 12 39 11 50 10 78 -5 21 -12 43 -15 63 -11 29 5 31 9
25 33 -6 22 -14 27 -55 31 -37 4 -49 10 -59 30 -18 35 -82 34 -130 -3 -30 -23
-37 -24 -47 -12 -10 12 -10 22 1 47 8 18 14 58 14 88 0 49 3 55 21 58 17 2 26
-6 40 -38 15 -32 23 -39 39 -34 49 15 75 15 104 0 36 -19 51 -14 51 18 0 12 5
27 11 33 25 25 -4 33 -109 33 l-107 0 -53 46 c-90 79 -63 113 115 150 41 8 83
19 92 24 32 18 118 38 143 33 15 -3 42 4 66 16 27 14 74 24 137 30 77 7 103
13 128 32 27 20 43 24 100 23 37 0 73 -6 79 -12 18 -18 43 -14 63 8 18 20 17
20 -433 20 -384 0 -452 -2 -452 -14z m3762 -81 c33 -22 36 -28 27 -48 -9 -20
-16 -23 -62 -19 -28 2 -53 5 -55 7 -7 7 19 74 31 79 20 7 21 7 59 -19z m-497
-148 c56 -16 81 -28 83 -40 5 -27 -38 -39 -63 -17 -14 12 -31 16 -58 13 -60
-8 -128 33 -100 60 12 12 56 7 138 -16z m705 -22 c0 -9 -6 -12 -16 -8 -13 5
-13 7 -2 14 17 11 18 11 18 -6z m45 -25 c3 -5 1 -10 -4 -10 -6 0 -11 5 -11 10
0 6 2 10 4 10 3 0 8 -4 11 -10z m-924 -328 c8 -120 -7 -136 -41 -45 -16 43
-18 58 -9 64 13 8 49 -6 50 -19z m-253 -74 c15 -15 16 -60 1 -75 -18 -18 -57
-3 -62 23 -2 13 -1 24 3 24 4 0 10 9 13 20 6 22 27 26 45 8z m414 -16 c6 9 8
6 6 -12 -2 -14 -7 -25 -13 -26 -5 0 -27 -8 -47 -17 -48 -22 -47 -22 -45 11 3
41 16 51 56 40 25 -7 36 -6 43 4z m-485 -54 c-3 -8 -6 -5 -6 6 -1 11 2 17 5
13 3 -3 4 -12 1 -19z m783 -59 c52 -6 116 -12 143 -14 61 -5 67 -9 67 -50 0
-32 -3 -35 -37 -40 -21 -4 -45 -9 -53 -12 -8 -3 -37 -6 -65 -8 -58 -4 -132
-28 -157 -53 -33 -32 -47 -42 -63 -42 -13 0 -11 7 9 33 27 35 25 47 -5 47 -9
0 -19 9 -22 20 -3 11 -17 24 -31 30 -42 16 -28 68 25 89 32 13 74 13 189 0z
m332 -26 c23 -21 23 -25 -7 -57 -27 -29 -43 -33 -51 -12 -3 8 -11 13 -19 10
-17 -7 -29 44 -14 62 16 19 68 18 91 -3z m-792 -22 c0 -4 -6 -15 -13 -25 -19
-25 -38 0 -26 33 8 19 12 21 24 11 8 -7 15 -16 15 -19z m-156 -42 c-3 -5 -10
-7 -15 -3 -5 3 -7 10 -3 15 3 5 10 7 15 3 5 -3 7 -10 3 -15z m1576 1 c0 -6 11
-8 28 -4 27 7 27 7 8 -15 -11 -11 -29 -21 -40 -21 -12 0 -39 -9 -61 -20 -22
-11 -43 -20 -47 -20 -13 0 -9 21 9 38 42 43 103 68 103 42z m0 -60 c0 -5 -7
-10 -15 -10 -8 0 -15 5 -15 10 0 6 7 10 15 10 8 0 15 -4 15 -10z m194 -9 c-18
-11 -34 -25 -36 -33 -4 -11 -8 -11 -20 0 -13 10 -19 10 -31 -2 -13 -14 -16
-14 -27 -1 -17 20 3 45 30 38 11 -3 20 0 20 6 0 6 19 11 48 11 l47 0 -31 -19z
m66 -1 c0 -13 -5 -18 -14 -14 -8 3 -12 12 -9 20 8 21 23 17 23 -6z m-215 -29
c-7 -13 -71 -41 -92 -41 -9 0 -11 5 -7 13 4 6 -2 3 -14 -7 -12 -11 -25 -16
-28 -13 -10 10 25 39 75 63 39 19 48 21 60 9 7 -7 10 -18 6 -24z m-1550 -56
c-18 -46 -82 -113 -137 -141 -15 -8 -32 -23 -38 -34 -11 -21 -194 -146 -250
-170 -72 -32 -130 -64 -130 -73 0 -5 10 -6 23 -3 12 4 47 9 77 12 260 25 301
30 462 53 42 7 177 13 300 15 123 2 235 7 249 11 23 6 27 3 32 -22 8 -38 -5
-46 -107 -68 -48 -10 -86 -22 -86 -26 0 -8 141 -21 245 -22 126 -1 164 9 215
54 42 37 44 40 23 45 -26 7 -28 15 -11 32 9 9 9 12 -2 13 -8 1 -18 1 -22 0 -5
0 -8 4 -8 9 0 6 4 10 9 10 5 0 12 8 16 18 16 52 195 131 230 102 7 -6 34 -13
59 -16 37 -3 53 -11 81 -42 36 -39 40 -49 26 -71 -13 -20 -116 -18 -137 3 -8
9 -12 16 -8 16 3 0 1 7 -6 15 -13 15 -60 21 -60 7 0 -4 -22 -17 -50 -30 -27
-13 -50 -26 -50 -29 0 -3 7 -3 14 0 10 4 13 1 9 -9 -3 -9 1 -14 14 -14 10 0
27 -6 38 -14 11 -7 37 -16 58 -19 46 -7 67 -22 67 -49 0 -16 4 -19 23 -13 12
3 28 7 35 7 8 1 18 12 23 25 5 13 20 28 34 35 14 6 25 15 25 20 0 13 103 9
121 -5 15 -11 12 -17 -25 -58 -42 -46 -116 -89 -154 -89 -11 0 -24 -4 -27 -10
-4 -6 15 -10 49 -10 45 0 57 4 66 20 7 14 21 20 45 20 18 0 37 5 41 11 11 19
133 -8 164 -36 24 -22 17 -40 -26 -60 -27 -13 -34 -21 -29 -36 6 -17 1 -19
-47 -19 -61 0 -155 -32 -180 -60 -19 -23 -41 -19 -80 17 -14 14 -37 24 -50 24
-12 -1 -40 -2 -60 -3 -30 -1 -38 -5 -38 -20 0 -21 49 -92 58 -84 3 3 18 -4 33
-15 22 -16 33 -18 48 -9 28 14 31 13 31 -16 0 -21 3 -24 21 -19 12 4 24 3 28
-3 7 -12 61 -4 61 9 0 5 -7 9 -15 9 -23 0 -29 27 -10 46 14 15 14 18 1 33 -11
12 -13 20 -5 28 7 7 35 1 91 -18 87 -31 128 -53 128 -70 0 -7 10 -9 25 -5 31
8 124 -23 230 -76 87 -43 102 -54 92 -65 -4 -3 -37 6 -75 22 -82 34 -232 49
-232 22 0 -8 -2 -22 -5 -29 -7 -17 52 -40 93 -38 66 5 89 -1 120 -30 18 -16
40 -30 48 -30 16 0 19 -21 3 -37 -16 -16 -14 -71 5 -92 16 -18 16 -19 -13 -29
-24 -9 -34 -8 -46 4 -13 14 -18 12 -40 -10 -14 -14 -30 -26 -35 -26 -6 0 -10
-4 -10 -9 0 -12 -74 -41 -103 -41 -13 0 -28 -5 -34 -11 -16 -16 -43 -3 -43 21
0 32 -57 62 -102 55 -32 -4 -38 -2 -38 13 0 15 -6 18 -29 14 -44 -6 -63 -31
-48 -62 7 -14 21 -29 32 -35 32 -16 64 -48 59 -57 -3 -4 0 -8 6 -8 6 0 18 -7
27 -15 14 -14 13 -18 -11 -40 -34 -32 -99 -50 -126 -35 -11 6 -20 7 -21 3 0
-4 -4 1 -9 12 -8 18 -9 18 -9 -5 0 -14 6 -33 14 -44 12 -16 12 -22 -2 -42 -8
-13 -20 -24 -27 -24 -6 0 -28 -9 -49 -20 -41 -22 -55 -24 -77 -10 -13 9 -13
11 0 20 10 6 11 10 3 10 -7 0 -13 7 -13 15 0 20 -43 46 -78 47 -30 1 -77 -25
-77 -41 0 -5 -18 -21 -39 -36 -33 -22 -43 -25 -63 -16 -13 6 -43 11 -67 11
-33 0 -47 6 -64 25 -12 14 -22 32 -22 40 0 19 -68 95 -85 95 -8 0 -16 -8 -18
-17 -4 -14 -5 -12 -6 5 -1 13 5 22 14 22 8 0 15 5 15 11 0 5 -8 9 -18 7 -11
-2 -26 3 -35 10 -13 11 -14 18 -5 32 9 14 9 22 -2 35 -22 26 -60 38 -77 23
-12 -10 -18 -8 -34 12 -10 14 -19 21 -20 15 -1 -5 -2 -14 -3 -20 -1 -11 -9
-15 -28 -15 -9 0 -9 3 0 12 16 16 15 28 -3 28 -22 0 -19 7 18 41 21 20 28 32
20 36 -7 2 -13 10 -13 16 -1 22 -50 49 -77 42 -34 -8 -53 10 -53 51 0 18 -5
36 -11 40 -6 4 2 17 23 35 18 15 27 28 21 29 -30 1 -10 20 20 20 23 0 41 -8
57 -25 32 -34 124 -61 157 -46 15 7 21 16 17 24 -21 34 -60 77 -71 77 -23 0
-13 28 12 34 18 5 25 13 25 31 0 16 6 25 15 25 10 0 15 -10 15 -30 0 -32 9
-37 28 -18 17 17 15 47 -3 54 -8 4 -15 15 -15 26 0 17 3 18 15 8 19 -15 37 -4
34 23 0 12 -1 28 0 35 1 17 52 15 78 -3 18 -13 22 -13 33 0 14 17 0 65 -28 98
-15 17 -92 24 -126 11 -16 -6 -23 -44 -8 -44 5 0 14 -11 20 -24 9 -20 8 -25
-5 -31 -10 -3 -20 1 -25 10 -13 21 -27 19 -37 -7 -9 -23 -9 -23 -20 5 -7 19
-20 29 -41 33 -26 6 -28 9 -18 27 8 16 7 23 -7 33 -22 16 -116 28 -156 20 -17
-3 -80 1 -141 9 -86 11 -115 12 -132 3 -11 -7 -29 -11 -38 -9 -13 2 -18 -5
-18 -23 0 -14 -4 -26 -10 -26 -5 0 -14 -8 -19 -18 -9 -16 -6 -19 19 -20 16 0
34 6 41 14 14 17 41 18 56 3 8 -8 25 -8 62 1 55 13 103 7 127 -17 14 -15 18
-15 44 0 27 16 29 16 60 -11 l32 -28 -26 -31 c-14 -17 -26 -36 -26 -42 0 -6
-11 -16 -25 -21 -15 -6 -25 -17 -25 -30 0 -13 -10 -24 -27 -30 -16 -6 -35 -14
-44 -19 -18 -11 -39 4 -39 27 0 22 -24 8 -40 -24 -8 -16 -16 -31 -17 -33 -2
-2 -10 2 -18 9 -11 9 -14 22 -10 37 6 25 -1 28 -39 13 -34 -13 -33 -40 2 -73
34 -32 49 -34 78 -6 18 17 26 19 43 10 24 -14 35 -47 35 -116 1 -61 -22 -73
-50 -26 -11 19 -22 27 -32 23 -11 -4 -35 16 -73 59 -55 61 -59 63 -72 45 -11
-15 -30 -21 -76 -24 -41 -3 -64 -9 -68 -18 -7 -19 -33 -18 -33 1 0 22 -31 18
-37 -5 -4 -16 -14 -20 -44 -20 -37 0 -38 -1 -27 -20 11 -16 9 -22 -7 -34 -11
-8 -17 -17 -14 -20 7 -7 44 7 71 26 13 10 20 10 29 1 9 -9 6 -18 -10 -39 -21
-26 -28 -56 -13 -52 12 2 62 -14 62 -21 0 -9 -64 -51 -78 -51 -7 0 -12 -6 -12
-13 0 -14 40 -37 65 -37 11 0 15 -12 15 -40 0 -46 20 -62 48 -38 9 8 25 18 35
21 29 11 33 39 9 55 -12 8 -22 22 -22 31 0 13 2 13 9 2 5 -8 16 -11 30 -6 35
11 24 26 -16 23 -30 -2 -38 -7 -38 -23 0 -11 -7 -21 -16 -23 -13 -2 -15 3 -12
23 3 14 10 25 17 25 6 0 3 5 -6 11 -22 12 -23 29 -3 29 8 0 15 7 15 15 0 9 9
15 24 15 21 0 25 5 28 38 2 28 7 37 21 36 20 -2 21 1 6 28 -10 19 -9 20 12 14
13 -4 48 -13 77 -19 49 -11 55 -15 67 -49 14 -41 9 -54 -12 -37 -25 21 -136
-42 -114 -64 5 -5 7 -15 5 -22 -3 -7 8 -17 23 -24 38 -16 93 -67 93 -86 0 -19
28 -19 49 -1 12 11 26 13 51 7 58 -12 73 -4 66 34 -7 37 5 53 23 31 9 -11 9
-15 0 -18 -21 -7 30 -95 63 -111 25 -12 27 -16 16 -28 -8 -8 -19 -23 -26 -34
-11 -19 -11 -19 -12 5 0 15 5 31 12 38 9 9 9 12 -3 12 -9 0 -22 -12 -29 -27
-11 -23 -14 -25 -18 -10 -2 10 4 27 13 37 16 17 15 19 -3 29 -24 13 -33 5 -26
-23 3 -15 -3 -31 -19 -48 -17 -19 -21 -30 -15 -42 16 -28 -16 -18 -44 14 -25
29 -68 41 -68 20 0 -5 -11 -10 -25 -10 -14 0 -25 -4 -25 -10 0 -5 7 -7 16 -3
12 4 15 2 12 -8 -3 -9 -16 -13 -40 -11 -25 2 -39 -2 -45 -13 -8 -14 -12 -13
-36 9 -22 20 -29 23 -40 12 -18 -19 -57 -30 -57 -17 0 6 6 11 14 11 19 0 27
25 13 39 -6 6 -18 11 -27 11 -9 0 -20 4 -26 9 -5 5 -27 11 -49 13 -34 3 -40 6
-39 26 0 16 -4 21 -14 17 -12 -4 -13 -3 -2 10 8 10 21 13 34 9 17 -4 15 -1 -9
20 -16 14 -35 25 -42 26 -6 0 -13 5 -15 12 -2 6 -10 8 -17 4 -7 -5 -10 -14 -7
-22 7 -17 -6 -18 -22 -2 -9 9 -15 9 -24 0 -15 -15 -48 -16 -48 -2 0 6 -13 10
-30 10 -21 0 -30 5 -30 16 0 12 -6 15 -24 10 -16 -4 -29 0 -41 14 -21 24 -22
23 33 37 l43 10 -6 -29 c-6 -25 -4 -29 12 -26 12 2 19 13 21 36 2 20 9 32 18
32 17 0 18 12 2 29 -11 10 -6 18 20 41 l34 28 -21 21 c-25 25 -35 27 -27 6 4
-10 -1 -15 -14 -15 -11 0 -20 5 -20 11 0 7 -12 8 -32 4 -45 -10 -59 -24 -30
-31 30 -9 28 -22 -5 -26 -18 -2 -29 -10 -32 -23 -2 -11 -16 -39 -32 -62 -16
-23 -29 -45 -29 -49 0 -15 -34 -44 -50 -44 -10 0 -25 -11 -33 -24 -21 -32 -57
-24 -77 17 -11 23 -21 31 -37 30 -11 -1 -24 4 -27 12 -4 11 2 15 20 15 29 0
64 16 64 30 0 15 -26 12 -40 -5 -8 -10 -30 -15 -61 -15 -45 0 -49 -2 -49 -24
0 -16 -7 -27 -20 -31 -11 -3 -20 -13 -20 -21 0 -8 -11 -31 -24 -51 -16 -23
-23 -44 -20 -61 3 -14 -1 -39 -7 -56 -10 -23 -10 -31 -1 -34 24 -8 0 -22 -37
-22 -43 0 -87 35 -97 77 -8 29 -12 29 -36 1 -19 -23 -20 -23 -34 -4 -8 11 -14
27 -14 36 0 19 28 44 55 48 29 5 31 11 10 25 -17 13 -17 14 -1 20 11 4 16 15
15 29 -4 30 8 49 27 41 8 -3 14 -2 13 3 -5 22 14 44 35 39 12 -3 42 5 70 20
33 16 66 25 98 25 36 0 48 4 48 15 0 8 4 15 9 15 5 0 17 8 26 17 16 16 18 16
27 0 11 -20 39 -22 56 -5 6 6 39 15 73 19 52 6 67 13 91 38 16 17 38 31 49 31
10 0 19 7 19 15 0 12 -3 13 -19 3 -14 -9 -26 -9 -43 -1 -15 7 -30 7 -40 2 -16
-9 -84 -14 -103 -8 -5 2 -34 0 -62 -4 -37 -5 -53 -12 -53 -22 0 -11 -12 -15
-41 -15 -36 0 -40 2 -29 15 8 9 21 13 36 9 23 -6 24 -4 20 30 -3 20 -8 41 -11
46 -3 5 14 19 37 31 45 22 58 35 58 57 0 26 -49 11 -90 -28 -39 -37 -70 -51
-70 -32 0 5 11 19 25 32 14 13 25 27 25 32 0 4 -11 8 -25 8 -14 0 -25 -4 -25
-8 0 -8 -25 -15 -115 -37 -19 -5 -81 12 -99 26 -4 4 5 14 21 22 31 17 62 47
46 47 -5 0 -14 -5 -21 -12 -6 -6 -15 -9 -19 -5 -3 4 10 22 30 40 40 36 45 47
21 47 -10 0 -14 6 -10 15 7 20 3 19 -84 -9 -41 -14 -80 -21 -88 -17 -15 8 -72
0 -139 -20 -32 -10 -46 -10 -54 -2 -8 8 -1 18 30 37 22 14 44 26 49 26 5 0 41
16 81 35 39 19 77 35 85 35 7 0 21 9 31 20 18 20 17 20 -33 20 -28 0 -61 -4
-74 -10 -13 -5 -77 -17 -143 -25 -66 -8 -178 -25 -250 -36 -74 -13 -184 -23
-255 -24 -69 -1 -150 -7 -180 -14 -74 -15 -605 -6 -672 12 -76 21 -83 37 -16
37 31 0 69 5 85 11 36 14 75 18 198 20 55 0 128 7 163 14 35 8 70 11 78 8 8
-3 35 1 60 8 l46 14 -34 8 c-18 4 -50 8 -71 7 -25 -1 -39 4 -43 15 -9 22 25
46 54 40 12 -3 39 -1 60 4 20 5 109 13 197 16 l160 6 48 47 c53 52 59 67 22
58 -34 -9 -131 4 -152 20 -17 12 -17 14 2 28 13 11 31 14 54 10 22 -3 39 0 50
9 9 9 27 17 41 19 19 2 26 10 28 31 2 15 15 39 29 53 19 19 24 32 20 54 -8 40
19 49 35 12 7 -15 18 -34 26 -44 10 -12 12 -33 7 -86 -8 -80 -10 -84 -48 -104
l-28 -14 39 -28 39 -27 64 15 c35 8 112 26 170 39 62 14 130 37 165 56 32 17
92 41 132 51 48 13 117 44 197 90 68 39 147 78 177 86 29 9 62 22 73 30 23 16
68 18 94 5 27 -15 61 -2 61 23 0 12 -4 26 -10 32 -20 20 8 35 74 39 37 2 71 7
75 10 5 2 19 -4 32 -14 31 -24 120 -18 145 10 9 11 27 19 40 19 13 0 26 5 29
10 3 6 14 10 24 10 10 0 32 7 47 15 27 14 30 13 38 -4 5 -13 2 -35 -9 -66z
m1367 43 c-8 -8 -6 -15 4 -26 15 -15 14 -36 -2 -38 -31 -2 -91 -18 -101 -27
-18 -14 -42 9 -36 33 3 11 11 20 18 20 8 0 20 7 29 15 15 16 66 39 79 37 4 -1
7 4 8 11 0 9 2 8 6 -1 3 -8 1 -18 -5 -24z m-2938 -33 c19 -14 18 -16 -15 -50
-19 -19 -43 -35 -55 -35 -25 0 -57 33 -59 61 -2 19 2 20 36 15 27 -4 42 -2 51
9 16 18 18 18 42 0z m-429 -17 c32 -14 29 -38 -7 -50 -19 -7 -36 -5 -55 4 -34
16 -34 29 -2 45 30 16 32 16 64 1z m97 -41 c-7 -8 -9 -17 -5 -20 3 -4 -1 -7
-9 -7 -15 0 -28 19 -28 40 0 12 33 18 44 9 5 -5 4 -14 -2 -22z m-210 -19 c-17
-8 -26 -8 -34 0 -9 9 -4 12 23 11 32 0 33 -1 11 -11z m328 -38 c25 -25 18 -40
-16 -40 -26 0 -40 20 -30 45 7 21 22 19 46 -5z m3310 -195 c-14 -16 -65 -21
-75 -6 -5 9 75 32 84 25 2 -2 -2 -10 -9 -19z m325 -248 c-5 -18 -1 -26 17 -35
21 -10 21 -11 3 -11 -28 -1 -50 34 -33 54 18 20 19 19 13 -8z m-1440 -96 c3
-5 1 -12 -5 -16 -5 -3 -10 1 -10 9 0 18 6 21 15 7z m1280 -25 c39 -17 46 -36
13 -36 -29 0 -108 30 -108 41 0 14 57 10 95 -5z m-3141 -170 c-27 -20 -11 -30
27 -17 18 6 39 11 47 11 23 0 -13 -36 -66 -67 -39 -23 -48 -25 -101 -16 -32 5
-70 6 -85 2 -19 -5 -26 -4 -23 4 6 18 80 67 95 62 6 -2 12 -1 12 4 0 4 13 6
28 3 18 -2 33 2 41 12 8 9 21 16 29 16 13 0 12 -3 -4 -14z m166 -29 c0 -26
-58 -64 -119 -78 l-35 -8 33 31 c30 28 95 67 114 68 4 0 7 -6 7 -13z m120 -22
c13 -16 9 -18 -28 -15 -13 1 -29 -3 -36 -9 -16 -13 -48 -3 -43 13 3 10 40 22
78 25 9 0 22 -6 29 -14z m-484 -173 c-8 -9 -19 -13 -22 -9 -10 9 16 38 28 31
6 -4 4 -13 -6 -22z m694 -22 c0 -20 -5 -30 -15 -30 -18 0 -20 16 -2 23 7 3 5
6 -5 6 -29 1 -20 31 9 31 8 0 13 -12 13 -30z m-1078 -16 c-25 -17 -53 -16 -60
4 -2 8 9 12 39 12 42 0 43 0 21 -16z m338 6 c0 -5 -2 -10 -4 -10 -3 0 -8 5
-11 10 -3 6 -1 10 4 10 6 0 11 -4 11 -10z m110 0 c0 -5 -9 -14 -20 -20 -17 -9
-20 -8 -20 10 0 13 7 20 20 20 11 0 20 -4 20 -10z m1754 -54 c24 -20 28 -29
22 -52 -12 -46 -26 -57 -46 -39 -21 19 -42 12 -55 -17 -14 -30 -28 -32 -43 -7
-11 18 -9 25 19 60 27 34 34 38 41 25 5 -9 16 -16 24 -16 13 0 12 6 -5 34 -39
63 -23 67 43 12z m-1908 -4 c-16 -15 -25 -21 -21 -13 12 21 39 48 44 44 3 -2
-8 -16 -23 -31z m2039 -12 c3 -5 -1 -10 -9 -10 -9 0 -16 5 -16 10 0 6 4 10 9
10 6 0 13 -4 16 -10z m1469 -35 c-6 -16 -34 -21 -34 -7 0 13 11 22 26 22 8 0
11 -6 8 -15z m-5110 -37 c47 -14 106 -70 136 -127 31 -62 27 -78 -20 -86 -22
-4 -42 -11 -45 -15 -3 -5 -30 -8 -61 -6 -45 3 -58 7 -71 27 -9 13 -42 50 -73
81 -53 51 -57 58 -46 80 14 27 70 57 110 58 16 0 47 -6 70 -12z m2736 -3 c-7
-9 -15 -13 -17 -11 -7 7 7 26 19 26 6 0 6 -6 -2 -15z m919 -17 c-9 -16 -14
-19 -17 -9 -2 7 2 17 9 22 20 13 21 11 8 -13z m1407 -21 c-6 -37 -3 -47 16
-68 83 -88 83 -89 61 -89 -24 0 -86 77 -76 93 4 6 0 8 -9 5 -17 -7 -78 20 -78
34 0 6 7 7 15 4 8 -3 22 -9 30 -12 8 -3 15 -1 15 6 0 6 -4 8 -10 5 -19 -12
-10 18 13 40 30 31 30 31 23 -18z m-1226 12 c0 -6 -4 -7 -10 -4 -5 3 -10 11
-10 16 0 6 5 7 10 4 6 -3 10 -11 10 -16z m943 9 c11 9 17 8 30 -6 16 -17 15
-18 -12 -16 -40 3 -71 14 -71 25 0 5 9 4 19 -3 15 -9 23 -9 34 0z m-2787 -102
c-14 -19 -26 -38 -26 -43 -1 -4 -19 -20 -40 -35 -36 -25 -57 -58 -27 -43 6 4
0 -4 -15 -17 -16 -13 -28 -28 -28 -34 0 -15 -75 -94 -88 -94 -21 0 -13 20 23
63 163 197 199 236 219 237 4 0 -3 -15 -18 -34z m537 14 c14 -16 21 -18 36
-10 11 5 31 10 45 10 22 0 24 -2 16 -29 -4 -16 -6 -32 -3 -35 3 -3 -8 -13 -26
-23 -17 -10 -31 -26 -31 -35 0 -39 -11 -48 -50 -42 -23 4 -40 2 -44 -5 -9 -14
-36 -15 -36 -1 0 5 8 6 18 3 15 -6 15 -5 3 10 -12 15 -11 17 12 17 19 0 28 8
40 38 14 34 14 38 -2 52 -21 17 -34 48 -25 61 9 15 28 10 47 -11z m154 14 c-3
-3 -12 -4 -19 -1 -8 3 -5 6 6 6 11 1 17 -2 13 -5z m66 -20 c-18 -14 -43 -19
-43 -9 0 15 26 31 42 27 18 -4 18 -5 1 -18z m2140 16 c9 0 17 -4 17 -8 0 -4
-25 -8 -55 -9 -43 -1 -55 2 -55 14 0 12 8 14 38 9 20 -3 45 -6 55 -6z m-1099
-15 c28 0 31 -22 5 -36 -17 -9 -24 -9 -27 0 -2 6 -12 11 -23 11 -10 0 -18 6
-16 13 3 17 19 27 32 19 5 -4 19 -7 29 -7z m-1674 -15 c0 -5 -4 -10 -10 -10
-5 0 -10 5 -10 10 0 6 5 10 10 10 6 0 10 -4 10 -10z m690 -10 c0 -5 -4 -10
-10 -10 -5 0 -10 5 -10 10 0 6 5 10 10 10 6 0 10 -4 10 -10z m-150 -30 c0 -5
-2 -10 -4 -10 -3 0 -8 5 -11 10 -3 6 -1 10 4 10 6 0 11 -4 11 -10z m500 -11
c0 -5 -7 -9 -15 -9 -15 0 -20 12 -9 23 8 8 24 -1 24 -14z m1885 9 c26 -13 75
-59 75 -70 0 -16 -28 -8 -54 17 -26 24 -92 49 -108 39 -4 -3 -8 1 -8 8 0 17
66 21 95 6z m-1288 -20 c-3 -8 -6 -5 -6 6 -1 11 2 17 5 13 3 -3 4 -12 1 -19z
m1189 -3 c6 -25 10 -27 49 -29 15 -1 19 -7 17 -23 -2 -13 2 -23 8 -23 6 0 9 4
5 9 -8 13 13 24 32 17 12 -5 13 -9 3 -21 -10 -12 -9 -15 8 -15 12 0 23 -4 26
-9 8 -12 -17 -61 -30 -61 -7 0 -14 -7 -17 -14 -4 -10 -1 -13 8 -10 10 4 12 0
8 -15 -8 -32 -21 -25 -29 17 -4 20 -14 45 -23 56 -22 25 -67 47 -84 40 -16 -6
-31 43 -15 52 5 3 8 13 7 22 -4 40 17 46 27 7z m-996 -28 c0 -4 5 -5 10 -2 6
3 10 2 10 -3 0 -5 10 -12 22 -15 18 -5 19 -8 8 -21 -16 -20 -40 -21 -40 -1 0
8 -4 15 -9 15 -8 0 -32 53 -31 69 1 9 30 -32 30 -42z m-1250 29 c0 -3 -4 -8
-10 -11 -5 -3 -10 -1 -10 4 0 6 5 11 10 11 6 0 10 -2 10 -4z m-600 -15 c0 -6
-9 -9 -19 -8 -11 0 -17 5 -15 9 7 11 34 10 34 -1z m660 -6 c0 -8 -7 -15 -15
-15 -8 0 -15 6 -15 13 0 8 -4 7 -10 -3 -8 -13 -10 -12 -10 3 0 12 8 17 25 17
16 0 25 -6 25 -15z m490 -29 c0 -3 -4 -16 -9 -30 -7 -16 -7 -26 0 -28 6 -2 -9
-34 -34 -71 -31 -47 -43 -75 -40 -92 4 -17 10 -22 22 -17 14 5 14 4 1 -12 -13
-17 -12 -17 24 -2 21 9 41 16 45 16 3 0 -1 4 -9 10 -12 8 -12 11 2 27 16 17
18 22 18 43 0 6 7 10 15 10 8 0 15 -4 15 -10 0 -14 33 -12 50 3 8 6 6 2 -5
-11 -14 -17 -26 -21 -42 -17 -17 4 -23 1 -23 -11 0 -13 7 -16 35 -11 21 3 33
2 30 -4 -4 -5 2 -9 12 -9 17 -1 17 -2 -1 -15 -11 -8 -15 -15 -10 -15 6 0 11
-7 11 -15 0 -8 -4 -15 -9 -15 -5 0 -6 -10 -2 -22 4 -13 8 -34 10 -47 1 -12 12
-32 23 -42 23 -22 24 -24 15 -67 -5 -23 -13 -31 -37 -36 -34 -7 -53 10 -36 31
6 7 8 17 4 23 -11 18 -33 11 -39 -14 -6 -26 -52 -44 -68 -28 -12 12 4 44 35
69 21 17 43 53 31 53 -2 0 -46 -13 -96 -30 l-91 -30 -63 31 c-34 17 -65 37
-68 45 -9 23 -47 16 -73 -12 l-24 -26 -20 21 c-11 11 -25 21 -32 21 -7 1 1 11
17 24 21 17 27 30 23 45 -3 12 -1 21 5 21 5 0 7 4 3 9 -3 5 -1 12 4 15 5 4 8
14 6 24 -2 9 -4 21 -4 25 -1 4 -10 3 -20 -3 -12 -6 -22 -6 -25 -1 -3 5 9 14
27 21 17 7 27 14 20 17 -7 2 -21 0 -32 -6 -30 -16 -49 -13 -61 9 -9 17 -7 22
15 30 15 6 23 14 20 20 -3 5 1 10 10 10 15 0 15 1 0 16 -25 25 4 52 53 48 20
-2 45 -3 55 -3 11 -1 15 -5 11 -13 -4 -6 -3 -8 3 -5 6 4 24 0 39 -8 16 -8 34
-15 41 -15 7 0 10 -7 6 -17 -4 -11 -3 -14 5 -9 8 4 10 2 6 -7 -3 -8 -1 -18 5
-22 17 -10 13 -35 -5 -35 -8 0 -12 -4 -9 -10 16 -26 55 -9 102 45 26 31 58 58
70 61 18 5 22 11 17 30 -5 18 -2 24 10 24 9 0 16 -2 16 -4z m1650 -27 c0 -18
-2 -19 -15 -9 -15 12 -12 30 6 30 5 0 9 -10 9 -21z m-493 4 c-4 -3 -2 -12 4
-20 8 -9 8 -13 1 -13 -6 0 -14 5 -17 10 -6 10 2 30 12 30 4 0 3 -3 0 -7z m411
-12 c3 -10 -1 -12 -17 -8 -24 6 -29 -8 -6 -17 8 -3 15 -15 15 -26 0 -11 6 -20
14 -20 8 0 17 -4 20 -9 3 -5 -10 -9 -29 -9 -19 0 -35 4 -35 10 0 5 -14 14 -31
20 -20 7 -28 15 -25 25 3 8 -2 22 -11 31 -16 16 -16 16 -11 -3 4 -16 0 -20
-24 -21 -33 -1 -36 8 -7 27 28 19 141 19 147 0z m-2198 1 c0 -13 -12 -22 -22
-16 -10 6 -1 24 13 24 5 0 9 -4 9 -8z m67 -3 c6 -6 9 -19 7 -28 -3 -9 1 -6 7
7 12 22 39 31 39 12 0 -6 8 -5 20 2 16 10 22 10 35 -3 9 -9 13 -23 9 -32 -5
-15 -8 -15 -27 -2 -30 21 -54 19 -62 -5 -8 -24 -21 -26 -29 -5 -3 8 -11 15
-18 15 -9 0 -9 -3 2 -11 13 -9 12 -10 -2 -5 -17 5 -88 -55 -88 -75 0 -5 -4 -9
-10 -9 -17 0 -11 20 15 46 14 14 25 29 25 34 0 6 7 10 15 10 9 0 15 9 15 23 0
37 24 49 47 26z m958 -5 c92 -16 188 -96 198 -164 3 -19 9 -44 13 -55 8 -20 8
-20 -20 -2 -15 11 -37 17 -47 14 -10 -3 -22 1 -27 8 -4 7 -16 14 -26 16 -10 2
-24 13 -30 24 -14 25 -28 35 -38 29 -4 -3 -5 2 -2 10 3 9 2 16 -4 16 -6 0 -14
-14 -17 -31 l-7 -32 -32 34 c-18 20 -38 33 -48 31 -10 -2 -18 -7 -18 -10 0 -4
-16 -8 -35 -9 -19 -1 -35 3 -35 8 0 5 -18 6 -42 3 -29 -5 -39 -4 -34 4 4 6 13
9 20 6 7 -3 21 3 31 12 14 14 21 15 36 6 25 -16 39 -15 39 3 0 8 9 15 19 15
12 0 26 12 35 30 14 30 14 30 -12 31 -24 0 -25 1 -7 9 11 5 27 7 35 5 8 -2 33
-7 55 -11z m-1278 -10 c-3 -3 -12 -4 -19 -1 -8 3 -5 6 6 6 11 1 17 -2 13 -5z
m1120 0 c-3 -3 -12 -4 -19 -1 -8 3 -5 6 6 6 11 1 17 -2 13 -5z m-1337 -13 c0
-13 -32 -24 -65 -23 -25 2 -27 0 -10 -7 23 -10 62 -71 46 -71 -14 0 -14 -37
-1 -45 8 -5 7 -11 -1 -21 -15 -18 -4 -31 13 -16 14 11 44 -5 43 -23 -2 -22
-17 -55 -24 -51 -3 3 -7 -7 -6 -21 0 -14 -6 -28 -12 -30 -7 -3 -13 1 -13 8 0
23 -84 122 -112 131 -22 8 -28 16 -28 40 0 16 -7 36 -15 45 -8 8 -12 19 -9 25
4 6 10 5 15 -3 6 -10 9 -11 9 -1 0 6 9 12 21 12 11 0 18 4 15 8 -6 10 4 24 28
37 23 13 106 17 106 6z m2210 -1 c0 -5 -4 -10 -10 -10 -5 0 -10 5 -10 10 0 6
5 10 10 10 6 0 10 -4 10 -10z m810 6 c0 -3 -4 -8 -10 -11 -5 -3 -10 -1 -10 4
0 6 5 11 10 11 6 0 10 -2 10 -4z m-2827 -22 c37 -9 67 -20 67 -25 0 -5 11 -9
25 -9 16 0 38 -13 59 -36 19 -20 39 -34 44 -30 5 3 12 -6 15 -21 3 -19 -2 -33
-19 -50 -13 -13 -28 -22 -32 -19 -5 3 -50 -37 -101 -89 -86 -89 -111 -108
-111 -86 0 5 -9 13 -21 16 -35 11 -44 46 -20 87 11 20 23 52 26 72 7 32 5 36
-21 47 -72 28 -114 51 -109 59 3 5 0 10 -7 12 -19 7 -1 58 21 58 10 0 24 6 30
14 16 19 72 19 154 0z m2005 -10 c6 -11 17 -15 31 -11 14 3 24 0 28 -9 3 -8
13 -14 22 -15 12 0 12 -2 2 -6 -11 -5 -11 -7 0 -14 10 -6 6 -9 -13 -9 -15 0
-30 -5 -33 -10 -4 -6 -1 -9 7 -8 7 2 13 -3 12 -9 -1 -7 -2 -22 -2 -33 -1 -11
-8 -20 -16 -20 -8 0 -16 -4 -18 -10 -1 -5 -17 -11 -33 -13 -17 -2 -46 -11 -66
-21 -32 -15 -39 -15 -64 -2 -20 11 -34 12 -47 5 -24 -13 -23 2 2 34 24 30 25
38 5 31 -8 -4 -15 -1 -15 5 0 6 9 11 21 11 15 0 19 5 15 18 -4 12 5 24 30 41
21 15 33 30 30 38 -4 10 -1 13 12 9 9 -3 24 -1 32 4 23 15 48 12 58 -6z
m-2444 -2 c2 -4 -4 -8 -15 -8 -10 0 -19 4 -19 8 0 4 6 8 14 8 8 0 17 -4 20 -8z
m2186 -5 c0 -7 9 -13 20 -13 13 0 19 5 16 13 -6 14 12 17 32 5 9 -7 8 -13 -8
-27 -22 -20 -28 -44 -6 -26 10 9 15 8 19 -3 3 -8 -4 -18 -19 -25 -31 -14 -34
-14 -34 -1 0 6 -11 21 -25 34 -28 26 -33 56 -10 56 8 0 15 -6 15 -13z m-993
-39 c-3 -8 -6 -5 -6 6 -1 11 2 17 5 13 3 -3 4 -12 1 -19z m895 -7 c-2 -9 4
-12 18 -8 23 6 27 -8 4 -17 -25 -10 -34 -7 -35 12 -1 16 -2 16 -6 0 -2 -10 -9
-18 -14 -18 -5 0 -8 -4 -6 -9 1 -5 -2 -9 -8 -10 -5 -1 -9 7 -9 16 3 50 4 52
32 49 16 -1 26 -7 24 -15z m491 -7 c-17 -13 -17 -14 0 -8 14 5 17 0 17 -25 0
-34 42 -87 60 -76 6 3 10 2 10 -4 0 -14 -11 -19 -51 -25 -19 -3 -28 -3 -21 0
14 6 17 34 3 34 -5 0 -18 3 -28 7 -16 6 -16 5 -4 -10 11 -15 11 -17 -2 -17 -8
0 -17 7 -21 15 -3 8 -10 15 -16 15 -6 0 -8 -4 -5 -10 3 -5 2 -10 -4 -10 -15 0
-21 14 -11 29 4 8 14 11 22 8 8 -3 21 -1 28 3 12 7 12 11 0 25 -7 9 -19 14
-27 11 -8 -3 -2 10 12 29 16 21 32 32 41 28 12 -4 12 -8 -3 -19z m-413 6 c0
-5 -7 -10 -15 -10 -8 0 -15 5 -15 10 0 6 7 10 15 10 8 0 15 -4 15 -10z m-2229
-50 c8 0 8 -4 -1 -15 -7 -9 -11 -17 -9 -18 41 -29 64 -38 87 -32 22 5 24 4 13
-9 -8 -9 -22 -16 -32 -16 -22 0 -22 -1 -10 -34 7 -17 7 -26 -2 -29 -7 -2 -8
-8 -4 -13 5 -5 12 -2 17 6 22 36 28 40 43 34 9 -3 17 -13 17 -21 0 -8 4 -12 9
-9 4 3 16 -3 26 -14 9 -10 30 -22 46 -25 16 -4 29 -11 29 -16 0 -6 4 -8 8 -5
13 8 29 -7 37 -33 6 -20 4 -23 -9 -18 -16 6 -43 -28 -37 -47 1 -6 -3 -20 -10
-33 -14 -25 -3 -46 11 -23 8 12 10 12 10 1 0 -8 8 -20 18 -27 15 -12 14 -13
-10 -14 -23 0 -28 -5 -28 -24 0 -13 7 -26 15 -30 24 -9 18 -43 -7 -48 -37 -6
-54 1 -67 28 -11 25 -12 25 -36 10 -23 -15 -25 -15 -37 4 -16 26 -19 25 -52
-5 -30 -28 -42 -31 -49 -12 -2 6 -3 2 -1 -9 4 -25 -14 -35 -47 -27 -14 4 -26
1 -33 -9 -6 -8 -18 -15 -26 -15 -8 0 -29 -3 -46 -7 l-30 -7 -14 137 c-10 100
-10 145 -2 168 6 17 14 51 17 75 10 63 79 192 113 212 26 15 28 15 49 -8 12
-12 27 -23 34 -23z m1392 36 c3 -11 -30 -32 -38 -25 -3 4 -3 14 1 23 7 17 33
19 37 2z m-3262 -8 c1 -7 1 -17 0 -21 -1 -5 8 -6 19 -2 17 5 20 2 20 -24 0
-29 -2 -31 -39 -31 -32 0 -40 4 -44 22 -4 13 0 33 9 45 16 25 33 30 35 11z
m3416 -4 c-3 -3 -12 -4 -19 -1 -8 3 -5 6 6 6 11 1 17 -2 13 -5z m1723 -3 c0
-12 -28 -22 -34 -12 -3 5 -3 11 1 15 9 9 33 7 33 -3z m-1641 -17 c10 -9 -6
-12 -31 -7 -16 3 -28 9 -28 14 0 8 48 2 59 -7z m1485 -3 c10 -15 -35 -45 -70
-47 -33 -1 -34 -1 -11 15 12 8 26 21 30 28 9 15 43 18 51 4z m-1734 -16 c-7
-9 -15 -13 -17 -11 -7 7 7 26 19 26 6 0 6 -6 -2 -15z m1540 -15 c0 -5 -5 -10
-11 -10 -5 0 -7 5 -4 10 3 6 8 10 11 10 2 0 4 -4 4 -10z m-4570 -4 c0 -2 -8
-10 -17 -17 -16 -13 -17 -12 -4 4 13 16 21 21 21 13z m2565 -57 c0 -39 2 -44
23 -43 28 1 28 -10 1 -29 -19 -14 -80 -9 -96 7 -11 10 16 56 32 56 10 0 15 7
14 18 -3 32 1 44 14 39 7 -2 12 -22 12 -48z m1165 13 c0 -8 9 -30 21 -48 27
-44 17 -58 -38 -51 -35 4 -43 2 -39 -9 3 -8 -1 -14 -9 -14 -8 0 -15 6 -15 13
0 8 -3 8 -9 -2 -5 -8 -7 -21 -4 -29 5 -11 1 -13 -18 -8 l-24 7 23 -20 c13 -11
18 -21 11 -23 -8 -3 -7 -12 6 -31 17 -26 17 -27 -3 -27 -11 0 -25 -7 -32 -15
-15 -18 -60 -16 -60 2 0 7 -4 13 -10 13 -5 0 -10 6 -10 14 0 8 -6 17 -12 19
-10 4 -10 8 1 15 10 7 10 11 1 17 -8 5 -7 12 5 25 16 18 13 40 -5 40 -11 0
-50 32 -50 40 0 3 5 12 10 20 7 12 14 9 40 -19 l30 -35 0 33 c0 31 1 32 31 26
101 -22 140 -6 131 56 -5 31 -3 33 12 20 9 -7 16 -20 16 -29z m726 23 c-3 -20
-16 -31 -16 -13 0 13 8 28 16 28 1 0 1 -7 0 -15z m-1826 -15 c0 -5 -4 -10 -9
-10 -6 0 -13 5 -16 10 -3 6 1 10 9 10 9 0 16 -4 16 -10z m1783 -2 c2 -9 23
-13 60 -12 32 1 57 -2 57 -7 0 -5 -4 -9 -9 -9 -5 0 -6 -12 -2 -27 5 -18 14
-27 25 -26 10 0 15 -1 12 -4 -8 -8 20 -33 37 -33 7 0 14 -7 14 -15 0 -8 -4
-15 -9 -15 -4 0 -8 3 -8 8 0 4 -13 8 -29 9 -19 1 -39 -7 -61 -27 -18 -16 -38
-26 -44 -22 -7 4 -5 8 7 10 9 2 17 12 17 24 0 15 -5 19 -20 15 -15 -4 -20 0
-20 14 0 10 6 19 13 19 8 0 7 3 -3 10 -14 9 -16 13 -19 45 -1 11 -6 12 -27 5
-22 -9 -25 -8 -20 6 3 8 6 22 6 30 0 17 17 19 23 2z m-1948 -8 c3 -5 2 -10 -4
-10 -5 0 -13 5 -16 10 -3 6 -2 10 4 10 5 0 13 -4 16 -10z m1059 -42 c-5 -7
-11 -6 -19 5 -7 9 -16 13 -20 9 -5 -4 -5 -1 -1 6 5 9 12 9 27 2 11 -6 16 -16
13 -22z m496 20 c0 -4 -9 -8 -20 -8 -11 0 -20 4 -20 8 0 4 9 8 20 8 11 0 20
-4 20 -8z m-1998 -23 c0 -5 -5 -11 -11 -13 -6 -2 -11 4 -11 13 0 9 5 15 11 13
6 -2 11 -8 11 -13z m2405 -12 c-2 -2 -14 -6 -27 -8 -18 -3 -20 -2 -10 10 6 8
18 11 26 8 8 -3 13 -7 11 -10z m372 -22 c21 -14 3 -31 -33 -31 -42 0 -52 10
-23 26 27 15 38 16 56 5z m-578 -34 c-8 -8 -14 -8 -23 2 -11 10 -10 11 5 6 12
-5 17 -2 18 11 0 12 2 14 6 6 3 -8 0 -19 -6 -25z m649 3 c0 -5 -4 -10 -10 -10
-5 0 -10 5 -10 10 0 6 5 10 10 10 6 0 10 -4 10 -10z m-2900 -15 c-7 -8 -16
-12 -21 -9 -16 9 -10 20 12 21 17 2 18 -1 9 -12z m2582 -27 c-7 -7 -12 -8 -12
-2 0 14 12 26 19 19 2 -3 -1 -11 -7 -17z m-1959 -13 c20 -8 38 -19 41 -24 7
-10 -20 -41 -35 -41 -5 0 -14 -11 -19 -24 -7 -21 -14 -24 -42 -20 -22 3 -29 2
-19 -5 11 -7 10 -11 -6 -19 -11 -6 -25 -7 -33 -2 -7 4 -20 6 -28 2 -11 -4 -13
-2 -7 9 8 12 6 12 -8 0 -9 -7 -17 -20 -17 -27 0 -8 -6 -14 -12 -14 -9 0 -8 -4
2 -10 12 -8 9 -10 -12 -10 -16 0 -28 -4 -28 -9 0 -12 -30 -8 -38 6 -4 5 -19
13 -34 17 -25 6 -28 11 -28 47 0 32 3 40 15 36 8 -4 17 -2 21 4 4 6 11 6 21
-2 12 -10 16 -10 23 1 7 12 10 12 15 -2 5 -14 11 -15 30 -6 28 12 37 43 28 89
l-6 32 70 -6 c39 -4 86 -14 106 -22z m1101 13 c-5 -7 -2 -9 8 -6 8 4 19 -2 26
-12 10 -17 9 -18 -21 -9 -17 5 -33 9 -34 9 -2 0 -3 7 -3 15 0 8 7 15 16 15 9
0 12 -5 8 -12z m-1544 -47 c-6 -12 -16 -19 -21 -15 -6 4 -4 13 7 25 21 24 29
18 14 -10z m-195 9 c3 -5 1 -10 -4 -10 -6 0 -11 5 -11 10 0 6 2 10 4 10 3 0 8
-4 11 -10z m2400 0 c3 -5 1 -10 -4 -10 -6 0 -11 5 -11 10 0 6 2 10 4 10 3 0 8
-4 11 -10z m-2101 -6 c18 -7 22 -39 6 -49 -14 -8 -50 4 -50 17 0 6 10 8 21 5
17 -4 19 -3 10 6 -21 21 -14 32 13 21z m1716 -9 c22 -12 23 -14 8 -20 -10 -4
-24 -1 -33 8 -28 29 -16 35 25 12z m-50 -5 c0 -5 -2 -10 -4 -10 -3 0 -8 5 -11
10 -3 6 -1 10 4 10 6 0 11 -4 11 -10z m600 -5 c0 -8 -9 -15 -20 -15 -22 0 -27
15 -7 23 21 9 27 7 27 -8z m-1020 -15 c0 -13 57 -70 70 -70 17 0 11 -18 -7
-24 -55 -15 -85 -17 -98 -6 -11 9 -23 9 -45 2 -17 -6 -30 -7 -30 -2 0 11 -32
0 -42 -14 -4 -6 -8 2 -8 18 0 21 4 27 15 22 8 -3 15 0 15 7 0 8 3 8 9 -2 7
-11 14 -10 39 8 17 11 37 21 46 21 12 0 15 6 10 25 -5 19 -2 25 10 25 9 0 16
-5 16 -10z m340 -10 c0 -5 -7 -10 -16 -10 -8 0 -12 5 -9 10 3 6 10 10 16 10 5
0 9 -4 9 -10z m45 -9 c3 -5 1 -12 -5 -16 -5 -3 -10 1 -10 9 0 18 6 21 15 7z
m495 -1 c0 -5 -4 -10 -10 -10 -5 0 -10 5 -10 10 0 6 5 10 10 10 6 0 10 -4 10
-10z m-1220 -20 c0 -5 -5 -10 -11 -10 -5 0 -7 5 -4 10 3 6 8 10 11 10 2 0 4
-4 4 -10z m1774 -31 c-2 -4 2 -9 8 -12 10 -4 11 -7 1 -18 -7 -7 -13 -9 -13 -3
0 11 -60 12 -76 2 -14 -9 -36 14 -32 33 4 17 77 28 100 15 9 -6 15 -13 12 -17z
m-2206 -1 c-3 -7 -13 -15 -23 -16 -15 -4 -16 -2 -4 12 17 19 32 21 27 4z
m2292 -14 c-12 -13 -40 -9 -40 6 0 11 22 18 38 12 9 -3 10 -8 2 -18z m-890 -5
c0 -6 -4 -7 -10 -4 -5 3 -10 11 -10 16 0 6 5 7 10 4 6 -3 10 -11 10 -16z
m-836 0 c35 -10 37 -13 32 -37 -12 -49 -13 -77 -2 -85 6 -5 1 -5 -11 -2 -17 5
-23 2 -23 -9 0 -20 -14 -20 -34 -1 -8 8 -17 11 -20 6 -3 -5 -18 -8 -33 -8 -15
0 -34 -9 -42 -20 -38 -46 -111 -72 -111 -39 0 7 -6 19 -13 25 -21 17 -59 -18
-46 -42 13 -22 -11 -59 -30 -48 -7 5 -29 5 -49 0 -20 -4 -40 -6 -44 -3 -4 3
-8 0 -8 -5 0 -6 5 -11 12 -11 6 0 9 -2 6 -5 -10 -11 -38 8 -36 24 2 10 -5 17
-21 19 -15 2 -21 0 -17 -7 4 -7 -1 -11 -13 -11 -10 0 -26 -2 -33 -5 -16 -6
-19 31 -4 54 7 11 5 13 -9 8 -18 -7 -45 8 -45 25 0 5 9 6 21 3 11 -4 31 -4 45
-1 20 5 24 13 24 41 0 23 5 35 14 35 23 0 26 39 5 54 -19 13 -18 14 12 20 48
9 109 7 109 -4 0 -14 54 -12 68 2 19 19 15 -32 -4 -53 -12 -13 -13 -22 -5 -37
8 -15 8 -22 -2 -25 -7 -3 -5 -6 6 -6 9 -1 17 5 17 13 0 25 33 28 64 5 28 -21
30 -21 42 -4 8 10 20 15 29 11 9 -3 14 -2 10 3 -3 5 7 14 22 19 16 6 22 11 16
11 -7 1 -13 6 -13 12 0 6 9 8 21 4 15 -5 19 -4 14 4 -7 12 21 81 33 81 4 0 24
-5 46 -11z m325 -6 c11 -10 27 -24 36 -31 8 -7 13 -17 10 -23 -4 -5 -2 -9 4
-9 5 0 14 8 20 18 9 16 10 16 16 0 4 -11 -2 -27 -19 -45 -14 -15 -26 -33 -26
-40 0 -7 -6 -10 -14 -7 -8 3 -17 1 -21 -5 -3 -6 -14 -11 -24 -11 -18 0 -54
-34 -64 -60 -4 -12 -6 -12 -6 2 -1 9 -14 29 -29 45 -16 15 -31 35 -34 43 -6
20 61 65 75 51 6 -6 18 -11 27 -11 8 0 22 -5 30 -10 13 -9 11 -13 -10 -31 -18
-15 -20 -19 -7 -15 10 3 24 6 30 6 11 0 37 44 37 61 0 4 -11 10 -25 13 -27 7
-49 40 -41 62 7 18 12 18 35 -3z m1121 -4 c9 -16 14 -18 26 -8 11 9 14 8 14
-2 0 -10 -14 -14 -47 -14 -36 0 -48 4 -48 15 0 13 17 27 37 29 4 1 12 -8 18
-20z m-2025 -48 c8 -15 -43 -50 -65 -44 -18 5 -18 7 -3 29 8 13 20 24 25 24 5
0 6 5 2 11 -5 8 -1 8 14 0 12 -6 23 -15 27 -20z m1149 7 c-1 -8 5 -15 13 -14
20 1 38 -27 30 -47 -7 -19 -37 -12 -37 9 0 8 -10 14 -25 14 -25 0 -31 13 -19
45 8 20 39 15 38 -7z m-1424 -23 c7 -8 19 -15 26 -15 8 0 14 -5 14 -11 0 -6 7
-8 16 -5 12 4 15 2 10 -9 -3 -8 -1 -15 4 -15 6 0 10 -7 10 -15 0 -8 6 -15 14
-15 22 0 14 -60 -10 -72 -19 -9 -19 -9 0 6 20 16 20 16 0 16 -16 0 -17 2 -4
10 13 8 10 14 -15 34 -16 13 -34 22 -39 19 -5 -4 -14 0 -20 8 -10 13 -59 39
-73 39 -3 0 -3 -9 0 -21 3 -12 2 -32 -3 -45 -6 -14 -6 -26 1 -29 5 -4 7 -10 4
-15 -4 -7 -13 -7 -44 -1 -2 1 2 8 9 16 7 8 9 16 4 16 -24 3 -51 -4 -68 -19
-15 -13 -20 -14 -24 -4 -2 7 -15 17 -28 22 -31 12 -32 40 -1 40 12 0 31 7 41
15 11 8 36 15 55 15 25 0 43 8 60 25 27 29 43 31 61 10z m1345 -20 c19 -19 35
-36 35 -38 0 -2 -13 -4 -30 -5 -23 0 -30 4 -30 18 0 10 -9 25 -21 33 -19 14
-17 19 9 26 1 1 18 -15 37 -34z m690 25 c3 -5 1 -10 -4 -10 -6 0 -11 5 -11 10
0 6 2 10 4 10 3 0 8 -4 11 -10z m-1105 -14 c0 -3 -4 -8 -10 -11 -5 -3 -10 -1
-10 4 0 6 5 11 10 11 6 0 10 -2 10 -4z m-813 -18 c7 17 24 15 17 -3 -9 -21
-44 -19 -44 3 0 15 2 15 11 2 8 -11 12 -12 16 -2z m893 -13 c0 -8 -9 -15 -19
-15 -29 0 -35 18 -9 23 13 2 24 5 26 6 1 0 2 -6 2 -14z m518 -31 c-4 -3 -12 5
-18 18 -12 22 -12 22 6 6 10 -10 15 -20 12 -24z m-1344 10 c3 -8 2 -12 -4 -9
-6 3 -10 10 -10 16 0 14 7 11 14 -7z m1506 6 c0 -5 -4 -10 -10 -10 -5 0 -10 5
-10 10 0 6 5 10 10 10 6 0 10 -4 10 -10z m-1980 -4 c0 -3 -4 -8 -10 -11 -5 -3
-10 -1 -10 4 0 6 5 11 10 11 6 0 10 -2 10 -4z m2640 -13 c0 -8 -13 -13 -30
-13 -23 0 -30 -4 -30 -20 0 -11 -4 -20 -9 -20 -5 0 -9 16 -9 35 0 35 1 35 39
33 23 -2 39 -8 39 -15z m-2140 -28 c0 -8 6 -15 14 -15 9 0 14 -9 13 -20 -1
-11 -5 -20 -9 -20 -4 0 -7 -5 -5 -11 3 -17 -46 -28 -85 -19 -18 4 -25 8 -15 9
13 1 16 7 12 24 -6 26 8 52 24 43 18 -11 13 -26 -6 -20 -17 5 -17 5 0 -6 9 -6
15 -15 12 -21 -4 -5 -1 -9 4 -9 6 0 11 7 11 15 0 8 5 15 10 15 6 0 10 7 10 15
0 8 -4 15 -10 15 -5 0 -10 5 -10 10 0 6 7 10 15 10 8 0 15 -7 15 -15z m733 -8
c15 3 26 -1 29 -9 7 -17 -8 -58 -22 -58 -13 0 -13 6 0 30 7 13 6 19 -5 24 -8
3 -15 1 -15 -4 0 -6 -4 -10 -10 -10 -5 0 -10 7 -10 15 0 8 -5 15 -11 15 -5 0
-7 5 -3 11 5 8 9 7 15 -3 5 -10 18 -14 32 -11z m-1066 -23 c-3 -3 -12 -4 -19
-1 -8 3 -5 6 6 6 11 1 17 -2 13 -5z m1553 -4 c0 -5 -2 -10 -4 -10 -3 0 -8 5
-11 10 -3 6 -1 10 4 10 6 0 11 -4 11 -10z m270 0 c0 -5 -2 -10 -4 -10 -3 0 -8
5 -11 10 -3 6 -1 10 4 10 6 0 11 -4 11 -10z m550 6 c0 -2 -8 -10 -17 -17 -16
-13 -17 -12 -4 4 13 16 21 21 21 13z m-2695 -16 c-3 -5 -10 -10 -16 -10 -5 0
-9 5 -9 10 0 6 7 10 16 10 8 0 12 -4 9 -10z m115 0 c0 -5 -7 -10 -15 -10 -8 0
-15 5 -15 10 0 6 7 10 15 10 8 0 15 -4 15 -10z m1022 -34 c-2 -11 6 -18 28
-22 16 -4 30 -13 30 -20 0 -8 5 -14 11 -14 6 0 -3 -11 -20 -25 -18 -16 -28
-32 -24 -40 7 -20 49 -19 57 2 5 11 10 13 17 6 19 -19 0 -50 -34 -58 -18 -4
-37 -9 -43 -10 -6 -2 -24 9 -40 24 -29 26 -38 60 -19 73 5 4 6 10 2 15 -10 10
-28 -18 -22 -34 2 -7 0 -13 -5 -13 -6 0 -11 8 -11 18 -1 16 -2 16 -6 0 -2 -10
-9 -18 -14 -18 -5 0 -9 -12 -10 -27 -1 -26 -1 -27 -7 -5 -4 13 -11 22 -17 20
-5 -2 -9 -6 -7 -10 3 -12 -23 -9 -36 4 -7 7 -12 23 -12 36 0 21 4 24 25 19 17
-3 30 1 38 12 7 9 31 33 55 54 44 39 69 44 64 13z m73 14 c3 -5 1 -10 -4 -10
-6 0 -11 5 -11 10 0 6 2 10 4 10 3 0 8 -4 11 -10z m292 -40 c10 1 27 2 38 1
19 -2 19 -2 2 -12 -10 -6 -24 -9 -30 -6 -7 2 -20 -6 -30 -19 -16 -21 -16 -24
-2 -24 9 0 14 -4 11 -9 -6 -9 15 -21 48 -28 11 -2 27 -10 36 -18 9 -8 20 -12
23 -8 4 3 7 1 7 -5 0 -16 42 -8 49 9 3 8 14 15 24 16 14 1 18 -4 14 -19 -3
-12 -1 -18 6 -15 13 4 40 -41 32 -54 -3 -4 -16 -4 -28 0 -29 11 -75 -6 -82
-30 -4 -10 -10 -19 -15 -19 -13 0 -41 50 -35 60 4 6 -2 13 -12 16 -10 3 -34
14 -54 25 -49 25 -56 24 -64 -11 -8 -37 -22 -39 -31 -5 -7 29 12 59 32 51 8
-3 18 3 24 14 6 10 6 20 1 22 -5 2 -10 19 -11 38 -3 50 -2 54 14 40 8 -6 23
-11 33 -10z m-902 0 c-3 -5 -10 -10 -16 -10 -5 0 -9 5 -9 10 0 6 7 10 16 10 8
0 12 -4 9 -10z m32 -16 c-3 -3 -12 -4 -19 -1 -8 3 -5 6 6 6 11 1 17 -2 13 -5z
m-107 -42 c-25 -4 -35 2 -26 17 5 7 13 7 27 -2 20 -12 20 -12 -1 -15z m80 24
c0 -3 -4 -8 -10 -11 -5 -3 -10 -1 -10 4 0 6 5 11 10 11 6 0 10 -2 10 -4z
m1605 -38 c-9 -44 -25 -59 -25 -25 0 15 4 27 10 27 5 0 7 7 4 15 -4 8 -1 15 6
15 8 0 9 -10 5 -32z m-1630 12 c3 -5 1 -10 -4 -10 -6 0 -11 5 -11 10 0 6 2 10
4 10 3 0 8 -4 11 -10z m142 -6 c-3 -3 -12 -4 -19 -1 -8 3 -5 6 6 6 11 1 17 -2
13 -5z m123 -4 c-20 -13 -33 -13 -25 0 3 6 14 10 23 10 15 0 15 -2 2 -10z
m1680 0 c0 -5 -4 -10 -10 -10 -5 0 -10 5 -10 10 0 6 5 10 10 10 6 0 10 -4 10
-10z m-1990 -10 c0 -5 -5 -10 -11 -10 -5 0 -7 5 -4 10 3 6 8 10 11 10 2 0 4
-4 4 -10z m100 -11 c0 -5 -12 -9 -26 -9 -22 0 -24 2 -14 14 12 15 40 11 40 -5z
m1761 11 c6 0 7 -5 4 -10 -5 -8 -11 -7 -21 1 -11 9 -14 8 -14 -5 0 -18 -15
-21 -26 -5 -8 14 16 31 34 24 8 -3 18 -5 23 -5z m-1652 -15 c14 -1 27 -8 29
-16 3 -8 16 -27 31 -42 l26 -29 -22 -17 c-12 -10 -45 -21 -74 -24 -45 -6 -55
-4 -71 15 -10 11 -18 16 -18 10 0 -7 -4 -12 -10 -12 -5 0 -7 7 -4 15 4 9 -3
24 -16 35 l-22 19 31 16 c17 8 31 23 31 32 0 12 6 14 33 8 17 -4 43 -8 56 -10z
m601 -6 c0 -5 -7 -9 -15 -9 -8 0 -15 7 -15 15 0 9 6 12 15 9 8 -4 15 -10 15
-15z m380 1 c0 -5 -5 -10 -11 -10 -5 0 -7 5 -4 10 3 6 8 10 11 10 2 0 4 -4 4
-10z m510 -11 c0 -11 4 -18 9 -14 5 3 12 1 15 -4 11 -17 -12 -22 -28 -5 -18
17 -21 44 -6 44 6 0 10 -9 10 -21z m307 15 c-3 -3 -12 -4 -19 -1 -8 3 -5 6 6
6 11 1 17 -2 13 -5z m-767 -20 c0 -8 -4 -12 -10 -9 -5 3 -10 10 -10 16 0 5 5
9 10 9 6 0 10 -7 10 -16z m90 8 c0 -13 -12 -22 -22 -16 -10 6 -1 24 13 24 5 0
9 -4 9 -8z m640 -22 c0 -20 -5 -30 -15 -30 -13 0 -14 -4 -5 -20 8 -16 8 -20
-3 -20 -8 0 -17 11 -19 25 -3 13 -2 22 3 20 12 -8 17 18 7 38 -7 13 -4 17 12
17 16 0 20 -6 20 -30z m-1635 -1 c16 -16 -49 -9 -70 7 -19 15 -18 16 20 9 22
-3 44 -11 50 -16z m-285 7 c0 -3 -4 -8 -10 -11 -5 -3 -10 -1 -10 4 0 6 5 11
10 11 6 0 10 -2 10 -4z m1800 -9 c0 -5 -6 -7 -14 -4 -7 3 -19 0 -25 -6 -8 -8
-11 -8 -11 0 0 12 15 20 38 20 6 0 12 -5 12 -10z m-1429 -20 c-10 -9 -11 -8
-5 6 3 10 9 15 12 12 3 -3 0 -11 -7 -18z m519 13 c0 -5 -5 -10 -11 -10 -5 0
-7 5 -4 10 3 6 8 10 11 10 2 0 4 -4 4 -10z m473 4 c-7 -3 -9 -12 -6 -20 6 -16
-13 -19 -23 -3 -7 11 13 29 31 28 6 0 5 -3 -2 -5z m612 -4 c3 -5 2 -10 -4 -10
-5 0 -13 5 -16 10 -3 6 -2 10 4 10 5 0 13 -4 16 -10z m-365 -4 c0 -11 -19 -15
-25 -6 -3 5 1 10 9 10 9 0 16 -2 16 -4z m133 -28 c-9 -15 -23 -8 -23 12 0 17
2 19 14 8 8 -7 12 -16 9 -20z m107 12 c0 -5 -9 -10 -19 -10 -11 0 -23 5 -26
10 -4 6 5 10 19 10 14 0 26 -4 26 -10z m-1510 -10 c8 -5 12 -11 10 -14 -3 -2
-14 2 -24 10 -22 15 -10 19 14 4z m422 -15 c10 -22 9 -29 -10 -48 -28 -27 -41
-14 -35 36 6 44 28 49 45 12z m453 15 c3 -5 1 -10 -4 -10 -6 0 -11 5 -11 10 0
6 2 10 4 10 3 0 8 -4 11 -10z m871 -12 c4 -7 3 -8 -4 -4 -8 5 -12 0 -12 -14 0
-13 10 -24 27 -31 20 -7 23 -13 15 -21 -16 -16 -55 26 -57 59 -1 24 19 31 31
11z m-1671 -8 c3 -5 1 -10 -4 -10 -6 0 -11 5 -11 10 0 6 2 10 4 10 3 0 8 -4
11 -10z m1455 -5 c0 -8 -4 -15 -10 -15 -5 0 -10 7 -10 15 0 8 5 15 10 15 6 0
10 -7 10 -15z m150 5 c0 -3 -5 -11 -12 -18 -9 -9 -9 -12 0 -12 7 0 12 -8 12
-19 0 -14 -6 -17 -25 -13 -24 4 -36 32 -15 32 6 0 10 5 10 10 0 6 -7 10 -16
10 -8 0 -12 4 -9 10 6 10 55 10 55 0z m-1460 -21 c0 -14 -17 -10 -23 5 -4 10
-1 13 9 9 7 -3 14 -9 14 -14z m646 9 c5 -7 2 -9 -8 -5 -9 3 -21 0 -27 -6 -6
-6 -14 -7 -18 -3 -8 8 15 26 34 26 6 0 15 -5 19 -12z m519 2 c-4 -6 6 -7 26
-3 29 6 31 4 24 -17 -5 -15 -4 -20 4 -16 6 4 11 2 11 -4 0 -8 -7 -9 -17 -5
-10 5 -26 8 -35 9 -10 0 -18 4 -18 8 0 4 -7 5 -15 2 -18 -7 -19 2 -2 21 14 16
31 20 22 5z m-1805 -10 c0 -5 -2 -10 -4 -10 -3 0 -8 5 -11 10 -3 6 -1 10 4 10
6 0 11 -4 11 -10z m474 -15 c-6 -16 -24 -21 -24 -7 0 11 11 22 21 22 5 0 6 -7
3 -15z m476 6 c0 -5 -4 -11 -9 -13 -13 -5 -24 -48 -12 -48 22 0 10 -30 -19
-45 l-29 -15 -7 37 c-6 31 -4 39 15 51 21 15 31 39 9 26 -7 -4 -8 -3 -4 4 8
14 56 16 56 3z m220 -1 c0 -5 -4 -10 -10 -10 -5 0 -10 5 -10 10 0 6 5 10 10
10 6 0 10 -4 10 -10z m808 -8 c15 12 16 11 3 -4 -7 -10 -17 -18 -22 -18 -5 0
-9 8 -8 18 0 11 2 12 6 4 4 -10 8 -10 21 0z m46 -7 c3 -9 0 -15 -9 -15 -8 0
-15 7 -15 15 0 8 4 15 9 15 5 0 11 -7 15 -15z m-2054 -5 c0 -5 -4 -10 -10 -10
-5 0 -10 5 -10 10 0 6 5 10 10 10 6 0 10 -4 10 -10z m1477 4 c-3 -3 -12 -4
-19 -1 -8 3 -5 6 6 6 11 1 17 -2 13 -5z m-725 -52 c12 -22 16 -24 70 -18 53 6
58 5 58 -12 0 -57 -82 -160 -131 -166 -14 -1 -30 -6 -37 -10 -7 -4 -10 -2 -7
6 3 7 -4 27 -15 43 -11 17 -20 26 -20 22 0 -5 -7 -1 -16 7 -14 14 -18 13 -41
-12 -18 -18 -24 -21 -20 -9 4 10 -1 29 -11 45 -9 14 -11 23 -4 19 6 -5 12 -4
12 2 0 6 -4 11 -9 11 -17 0 -23 40 -9 57 8 10 9 18 3 20 -23 8 -39 22 -32 29
3 4 14 1 23 -7 9 -7 31 -12 50 -11 19 2 43 -2 55 -8 28 -16 55 5 37 28 -12 13
-10 14 9 2 12 -8 28 -25 35 -38z m368 26 c0 -6 -6 -5 -15 2 -8 7 -15 14 -15
16 0 2 7 1 15 -2 8 -4 15 -11 15 -16z m200 18 c0 -3 -4 -8 -10 -11 -5 -3 -10
-1 -10 4 0 6 5 11 10 11 6 0 10 -2 10 -4z m680 -50 c-14 -14 -24 0 -16 21 6
15 8 15 16 3 6 -9 5 -19 0 -24z m-810 10 c0 -23 -18 -29 -35 -12 -11 11 -12
16 -2 19 23 10 37 7 37 -7z m130 4 c0 -5 -4 -10 -10 -10 -5 0 -10 5 -10 10 0
6 5 10 10 10 6 0 10 -4 10 -10z m-956 -15 c3 -9 0 -15 -9 -15 -8 0 -15 7 -15
15 0 8 4 15 9 15 5 0 11 -7 15 -15z m1106 -5 c0 -5 -4 -10 -10 -10 -5 0 -10 5
-10 10 0 6 5 10 10 10 6 0 10 -4 10 -10z m50 -40 c0 -5 -7 -10 -15 -10 -8 0
-15 5 -15 10 0 6 7 10 15 10 8 0 15 -4 15 -10z m-582 -23 c15 0 16 -13 2 -22
-6 -4 -8 -10 -5 -15 3 -5 1 -11 -5 -15 -5 -3 -10 -1 -10 5 0 6 -7 18 -15 26
-21 21 -19 38 3 29 9 -4 23 -8 30 -8z m-771 -13 c-3 -3 -12 -4 -19 -1 -8 3 -5
6 6 6 11 1 17 -2 13 -5z m2173 -14 c0 -5 -4 -10 -10 -10 -5 0 -10 5 -10 10 0
6 5 10 10 10 6 0 10 -4 10 -10z m-1340 -15 c14 -16 10 -18 -14 -9 -9 3 -16 10
-16 15 0 14 16 11 30 -6z m-361 -37 c0 -13 3 -34 7 -47 6 -19 4 -22 -12 -19
-23 4 -28 26 -15 61 13 33 21 35 20 5z m1666 -18 c3 -5 -3 -10 -14 -10 -11 0
-23 5 -26 10 -3 6 3 10 14 10 11 0 23 -4 26 -10z m57 -22 c-7 -7 -12 -8 -12
-2 0 14 12 26 19 19 2 -3 -1 -11 -7 -17z m-1855 -95 c12 -12 33 -29 47 -38 14
-10 26 -23 26 -30 0 -19 -30 -27 -36 -10 -4 8 -12 15 -20 15 -7 0 -21 14 -31
31 -11 18 -29 33 -46 36 -29 6 -42 18 -33 32 8 13 67 -10 93 -36z m63 37 c0
-5 -4 -10 -10 -10 -5 0 -10 5 -10 10 0 6 5 10 10 10 6 0 10 -4 10 -10z m1796
-24 c15 -16 18 -26 6 -26 -4 0 -13 9 -20 20 -14 23 -7 26 14 6z m-1771 -6 c3
-5 -1 -10 -9 -10 -9 0 -16 5 -16 10 0 6 4 10 9 10 6 0 13 -4 16 -10z m-2876
-45 c-13 -13 -28 -25 -33 -25 -5 0 -18 -7 -28 -17 -10 -9 -20 -14 -23 -11 -5
4 93 78 103 78 2 0 -6 -11 -19 -25z m2811 -61 c0 -2 -7 -4 -15 -4 -8 0 -15 4
-15 10 0 5 7 7 15 4 8 -4 15 -8 15 -10z"/>
<path d="M3760 3400 c0 -12 8 -12 35 0 18 8 17 9 -7 9 -16 1 -28 -3 -28 -9z"/>
<path d="M3218 2983 c7 -3 16 -2 19 1 4 3 -2 6 -13 5 -11 0 -14 -3 -6 -6z"/>
<path d="M3047 2868 c-15 -5 -25 -14 -21 -19 9 -15 37 -10 64 11 23 18 23 20
5 19 -11 0 -32 -5 -48 -11z"/>
<path d="M2930 2800 c-33 -8 -61 -15 -193 -55 -54 -17 -107 -53 -107 -74 0
-13 79 10 190 57 121 51 150 65 150 75 0 4 -1 6 -2 6 -2 -1 -19 -5 -38 -9z"/>
<path d="M2560 2660 c-12 -8 -9 -10 13 -10 16 0 26 4 22 10 -8 12 -16 12 -35
0z"/>
<path d="M4310 2530 c-12 -8 -9 -10 13 -10 16 0 26 4 22 10 -8 12 -16 12 -35
0z"/>
<path d="M2865 2485 c-5 -2 -50 -15 -99 -30 -121 -36 -138 -43 -131 -55 4 -6
20 -4 43 4 20 8 57 19 82 26 25 7 59 19 77 26 17 8 40 14 51 14 12 0 24 5 27
10 6 9 -27 13 -50 5z"/>
<path d="M3375 2478 c-4 -10 -16 -13 -35 -10 -41 6 -50 -21 -20 -54 30 -30 45
-30 76 1 20 20 29 23 45 15 25 -14 39 -5 39 26 0 20 -5 24 -27 24 -16 0 -38 3
-50 6 -15 4 -25 1 -28 -8z"/>
<path d="M4075 2480 c-3 -5 1 -10 10 -10 9 0 13 5 10 10 -3 6 -8 10 -10 10 -2
0 -7 -4 -10 -10z"/>
<path d="M4472 2438 c7 -19 38 -22 38 -4 0 10 -9 16 -21 16 -12 0 -19 -5 -17
-12z"/>
<path d="M2855 2380 c-16 -7 -17 -9 -3 -9 9 -1 20 4 23 9 7 11 7 11 -20 0z"/>
<path d="M3396 2358 c-31 -25 -36 -35 -31 -58 5 -21 0 -35 -21 -59 -17 -21
-23 -36 -17 -42 16 -16 43 2 59 39 23 55 41 70 95 77 48 7 49 8 36 28 -7 11
-29 26 -49 33 -34 11 -38 10 -72 -18z"/>
<path d="M2790 2360 c0 -5 -9 -10 -20 -10 -11 0 -20 -4 -20 -10 0 -15 26 -12
40 5 7 8 16 13 20 10 5 -3 11 -1 15 5 3 5 -3 10 -14 10 -12 0 -21 -4 -21 -10z"/>
<path d="M2677 2354 c-14 -14 -6 -24 19 -24 16 0 24 5 22 13 -5 14 -31 21 -41
11z"/>
<path d="M3023 2347 c-36 -8 -43 -14 -43 -33 0 -30 3 -30 67 4 78 40 69 52
-24 29z"/>
<path d="M4300 2330 c0 -5 -6 -10 -14 -10 -30 0 -25 -19 9 -39 19 -11 35 -27
35 -35 0 -8 5 -18 11 -21 6 -4 9 0 7 11 -2 15 2 18 25 16 34 -3 36 15 2 24
-14 3 -33 19 -42 35 -17 29 -33 38 -33 19z"/>
<path d="M2798 2297 c-9 -7 -14 -18 -10 -24 14 -22 92 2 92 28 0 14 -63 10
-82 -4z"/>
<path d="M4553 2303 c-13 -2 -23 -11 -23 -19 0 -17 -1 -17 39 -3 17 6 31 15
31 20 0 9 -8 10 -47 2z"/>
<path d="M4558 2249 c-10 -5 -18 -16 -18 -22 0 -7 -5 -18 -12 -25 -6 -6 -19
-33 -28 -59 -18 -53 -20 -53 -100 -33 -63 16 -91 0 -87 -49 3 -44 11 -51 48
-41 26 8 98 -15 99 -31 1 -16 -47 -29 -76 -20 -17 5 -43 7 -57 4 -32 -6 -62
20 -72 64 -3 18 -11 36 -17 39 -13 8 0 -55 14 -73 7 -9 5 -21 -6 -38 -9 -14
-13 -25 -9 -25 5 0 24 -15 43 -33 19 -19 41 -32 48 -29 7 2 12 -6 12 -22 0
-19 -8 -30 -25 -38 -24 -11 -25 -15 -19 -57 5 -31 16 -54 34 -71 l27 -25 12
27 c7 16 17 28 21 28 5 0 2 -12 -6 -27 -18 -36 -18 -47 2 -39 8 3 12 2 9 -3
-8 -14 6 -20 62 -25 41 -5 54 -2 68 14 22 24 47 27 38 4 -5 -14 -3 -14 26 1
18 9 31 21 28 28 -4 12 15 26 61 46 12 6 25 17 28 26 3 8 10 13 14 10 4 -3 10
1 13 9 8 19 -18 28 -60 20 -24 -4 -41 -17 -58 -42 l-24 -36 -41 44 c-33 36
-38 46 -27 59 10 14 10 14 -4 4 -9 -7 -19 -10 -22 -6 -15 14 -5 22 36 28 61 9
72 17 58 43 -10 18 -8 24 14 38 20 13 28 14 40 4 17 -14 19 -7 5 20 -6 11 -17
17 -25 14 -8 -4 -15 -2 -15 3 0 5 -13 17 -30 26 -38 23 -57 56 -39 68 7 4 17
6 21 3 10 -6 48 14 71 37 10 11 28 19 40 19 64 0 83 65 34 117 -28 29 -37 33
-82 33 -27 0 -58 -5 -67 -11z m-108 -313 c0 -3 -4 -8 -10 -11 -5 -3 -10 -1
-10 4 0 6 5 11 10 11 6 0 10 -2 10 -4z m-40 -40 c0 -3 -4 -8 -10 -11 -5 -3
-10 -1 -10 4 0 6 5 11 10 11 6 0 10 -2 10 -4z m-40 -46 c0 -5 -2 -10 -4 -10
-3 0 -8 5 -11 10 -3 6 -1 10 4 10 6 0 11 -4 11 -10z m115 -80 c-3 -5 -11 -10
-16 -10 -6 0 -7 5 -4 10 3 6 11 10 16 10 6 0 7 -4 4 -10z m-95 -20 c0 -5 -2
-10 -4 -10 -3 0 -8 5 -11 10 -3 6 -1 10 4 10 6 0 11 -4 11 -10z m57 -52 c-26
-16 -36 -9 -24 17 11 23 13 23 24 8 10 -13 10 -18 0 -25z"/>
<path d="M5020 2240 c0 -5 9 -10 21 -10 15 0 20 -5 17 -22 -2 -18 -9 -23 -31
-21 -20 1 -27 -2 -24 -11 3 -6 -1 -23 -9 -37 -20 -36 -17 -40 16 -21 16 9 30
20 30 24 0 3 9 4 20 1 11 -3 20 0 20 6 0 6 -10 11 -22 11 -20 1 -21 2 -8 13 8
7 21 22 27 34 11 19 10 24 -6 33 -25 13 -51 13 -51 0z"/>
<path d="M2940 2117 c-33 -17 -37 -36 -6 -30 28 6 52 28 38 36 -4 3 -19 0 -32
-6z"/>
<path d="M4789 2123 c-2 -24 -10 -57 -14 -62 -3 -2 -12 4 -20 15 -13 18 -14
18 -15 1 0 -14 -4 -16 -19 -7 -29 15 -36 -5 -9 -24 18 -13 19 -16 5 -16 -29 0
-19 -27 22 -59 64 -51 81 -42 97 47 5 25 2 36 -11 46 -9 6 -16 19 -15 27 4 25
0 39 -10 39 -5 0 -10 -3 -11 -7z"/>
<path d="M3125 2070 c-4 -7 -1 -16 6 -21 17 -10 26 8 11 23 -6 6 -12 6 -17 -2z"/>
<path d="M5157 2003 c-12 -21 -17 -83 -7 -83 6 0 14 8 17 18 4 9 11 20 16 23
5 4 6 16 2 28 -6 21 -20 28 -28 14z"/>
<path d="M3470 1931 c-13 -26 -13 -31 5 -31 8 0 15 4 15 9 0 5 3 16 6 25 9 23
-13 20 -26 -3z"/>
<path d="M4615 1890 c-3 -5 1 -10 9 -10 9 0 16 5 16 10 0 6 -4 10 -9 10 -6 0
-13 -4 -16 -10z"/>
<path d="M2592 1855 c-21 -21 -22 -26 -8 -31 26 -10 46 3 46 31 0 31 -9 31
-38 0z"/>
<path d="M2838 1868 c9 -9 15 -9 24 0 9 9 7 12 -12 12 -19 0 -21 -3 -12 -12z"/>
<path d="M4637 1864 c-4 -4 -7 -14 -7 -23 0 -11 3 -12 11 -4 6 6 10 16 7 23
-2 6 -7 8 -11 4z"/>
<path d="M4215 1810 c-5 -7 20 -40 31 -40 2 0 4 9 4 19 0 20 -26 36 -35 21z"/>
<path d="M4673 1695 c-7 -20 24 -55 48 -55 20 0 24 4 33 43 6 26 5 27 -34 27
-27 0 -43 -5 -47 -15z"/>
<path d="M4782 1692 c-15 -10 -5 -42 13 -42 7 0 16 -6 19 -12 3 -7 4 0 0 16
-3 18 0 32 8 37 9 6 7 9 -7 9 -11 0 -26 -4 -33 -8z"/>
<path d="M3540 1666 c0 -20 4 -24 25 -21 35 3 41 12 16 20 -12 3 -21 11 -21
16 0 5 -4 9 -10 9 -5 0 -10 -11 -10 -24z"/>
<path d="M2458 1635 c4 -25 25 -34 37 -16 5 10 -20 41 -34 41 -5 0 -6 -11 -3
-25z"/>
<path d="M3150 1450 c0 -5 4 -10 9 -10 6 0 13 5 16 10 3 6 -1 10 -9 10 -9 0
-16 -4 -16 -10z"/>
<path d="M3200 1438 c0 -7 13 -13 29 -14 25 -1 27 1 16 12 -17 17 -45 18 -45
2z"/>
<path d="M3145 1403 c8 -15 12 -30 9 -35 -3 -4 0 -8 5 -8 6 0 11 4 11 10 0 5
8 7 18 4 13 -5 14 -4 3 4 -8 6 -12 19 -8 31 4 18 1 21 -23 21 -28 0 -28 -1
-15 -27z"/>
<path d="M3246 1385 c-26 -40 -21 -59 15 -51 35 7 71 37 51 44 -6 2 -12 10
-12 18 0 23 -36 16 -54 -11z"/>
<path d="M3396 1353 c-6 -14 -5 -15 5 -6 7 7 10 15 7 18 -3 3 -9 -2 -12 -12z"/>
<path d="M3305 1319 c-12 -19 5 -23 22 -6 16 16 16 17 1 17 -9 0 -20 -5 -23
-11z"/>
<path d="M3225 1295 c-39 -17 -21 -18 25 0 19 7 28 14 20 14 -8 0 -28 -6 -45
-14z"/>
<path d="M3554 1238 c-3 -4 4 -8 15 -8 12 0 21 4 21 8 0 5 -7 9 -15 9 -9 0
-18 -4 -21 -9z"/>
<path d="M4480 1440 c0 -5 7 -10 15 -10 8 0 15 5 15 10 0 6 -7 10 -15 10 -8 0
-15 -4 -15 -10z"/>
<path d="M2065 1240 c3 -5 10 -10 16 -10 5 0 9 5 9 10 0 6 -7 10 -16 10 -8 0
-12 -4 -9 -10z"/>
<path d="M2078 1204 c-4 -3 -4 -19 -1 -35 4 -22 2 -29 -11 -29 -22 0 -20 -17
4 -30 17 -9 20 -6 26 26 6 35 -5 81 -18 68z"/>
<path d="M2210 1195 c0 -9 -4 -13 -10 -10 -5 3 -10 1 -10 -5 0 -7 -7 -5 -16 4
-12 13 -18 13 -29 3 -11 -10 -10 -13 6 -15 11 -2 17 -8 14 -13 -4 -5 0 -9 8
-9 12 0 14 -9 10 -39 -3 -23 -1 -41 6 -45 6 -4 11 -2 11 3 0 6 9 11 20 11 14
0 18 -5 13 -17 -4 -11 -3 -14 5 -9 7 4 12 15 12 26 0 10 7 21 15 24 14 5 14 8
0 29 -8 13 -12 27 -8 30 3 4 -1 7 -11 7 -9 0 -15 3 -13 8 3 4 -1 13 -9 20 -12
11 -14 10 -14 -3z"/>
<path d="M2160 995 c0 -9 6 -12 15 -9 8 4 12 10 9 15 -8 14 -24 10 -24 -6z"/>
<path d="M2036 974 c-12 -31 -6 -44 19 -44 14 0 25 4 25 9 0 5 3 17 7 27 4 11
3 15 -5 10 -6 -3 -13 -2 -17 4 -9 15 -22 12 -29 -6z"/>
<path d="M2265 940 c-3 -5 -1 -10 4 -10 6 0 11 5 11 10 0 6 -2 10 -4 10 -3 0
-8 -4 -11 -10z"/>
<path d="M3990 1145 c-8 -9 -8 -15 -2 -15 12 0 26 19 19 26 -2 2 -10 -2 -17
-11z"/>
<path d="M5205 1220 c3 -5 11 -10 16 -10 6 0 7 5 4 10 -3 6 -11 10 -16 10 -6
0 -7 -4 -4 -10z"/>
<path d="M3306 917 c3 -10 9 -15 12 -12 3 3 0 11 -7 18 -10 9 -11 8 -5 -6z"/>
<path d="M3371 784 c0 -11 3 -14 6 -6 3 7 2 16 -1 19 -3 4 -6 -2 -5 -13z"/>
<path d="M3533 695 c0 -8 4 -15 9 -15 4 0 8 7 8 15 0 8 -4 15 -8 15 -5 0 -9
-7 -9 -15z"/>
<path d="M3550 596 c0 -2 7 -6 15 -10 8 -3 15 -1 15 4 0 6 -7 10 -15 10 -8 0
-15 -2 -15 -4z"/>
<path d="M1685 4123 c30 -7 45 -32 45 -77 l0 -41 85 -2 c101 -3 107 7 34 55
-28 19 -54 42 -56 53 -5 16 -14 19 -67 18 -33 -1 -52 -3 -41 -6z"/>
<path d="M3171 4019 c-20 -44 -17 -63 13 -88 13 -11 22 -10 51 3 19 10 40 14
45 11 5 -3 24 8 41 26 36 37 31 47 -39 66 -26 7 -57 15 -70 19 -19 5 -25 0
-41 -37z"/>
<path d="M1331 3998 c5 -39 -8 -49 -56 -42 -62 8 -69 0 -39 -45 21 -32 32 -39
69 -44 52 -8 95 6 95 29 0 9 -9 27 -19 41 -15 18 -18 30 -11 48 10 26 5 35
-22 35 -14 0 -19 -6 -17 -22z"/>
<path d="M2476 3985 c-4 -12 -1 -16 11 -13 18 3 21 20 5 26 -5 1 -12 -4 -16
-13z"/>
<path d="M2792 3990 c-12 -5 -28 -22 -34 -37 -25 -58 -68 -80 -92 -47 -7 8
-30 18 -53 21 -37 5 -45 2 -67 -23 -33 -37 -32 -50 2 -62 21 -7 35 -6 53 4 34
19 49 17 78 -9 68 -61 157 -71 199 -22 13 15 33 25 48 25 25 0 26 -2 20 -37
-3 -21 -6 -46 -6 -55 0 -9 -14 -25 -31 -35 -30 -17 -31 -20 -27 -74 3 -44 1
-56 -9 -52 -8 3 -13 -3 -13 -15 0 -16 17 -32 36 -32 2 0 4 13 4 30 0 25 7 33
40 50 23 12 43 27 46 35 3 7 21 21 39 29 51 25 85 5 135 -77 l19 -31 10 27
c16 41 -34 187 -63 187 -21 0 -37 25 -39 64 -3 44 -4 45 -98 94 -79 42 -157
58 -197 42z"/>
<path d="M2347 3973 c-4 -3 -7 -18 -7 -32 0 -14 -7 -35 -15 -45 -17 -22 -19
-44 -6 -64 13 -22 51 7 51 39 0 14 9 35 20 47 24 26 25 31 3 48 -20 15 -36 17
-46 7z"/>
<path d="M2197 3963 c-11 -18 -19 -123 -10 -123 24 0 40 36 35 83 -4 43 -14
59 -25 40z"/>
<path d="M2040 3795 c0 -8 5 -15 10 -15 6 0 10 7 10 15 0 8 -4 15 -10 15 -5 0
-10 -7 -10 -15z"/>
<path d="M886 3767 l-29 -23 28 -22 c38 -30 65 -29 65 4 0 27 -16 64 -28 64
-4 0 -20 -11 -36 -23z"/>
<path d="M2131 3776 c-24 -10 -23 -24 1 -40 12 -7 26 -5 52 9 19 10 33 22 31
26 -8 12 -61 15 -84 5z"/>
<path d="M1520 3760 c0 -5 12 -10 26 -10 14 0 23 4 19 10 -3 6 -15 10 -26 10
-10 0 -19 -4 -19 -10z"/>
<path d="M2604 3750 c-34 -13 -35 -44 -3 -91 16 -24 31 -57 35 -73 l6 -29 13
29 c7 16 15 55 19 85 6 45 4 60 -9 73 -18 18 -30 19 -61 6z"/>
<path d="M1314 3734 c3 -9 6 -18 6 -20 0 -3 5 -2 10 1 16 10 12 35 -6 35 -11
0 -14 -5 -10 -16z"/>
<path d="M1446 3725 c-8 -9 -12 -23 -9 -32 5 -14 8 -14 11 -2 3 7 9 22 14 32
11 21 4 22 -16 2z"/>
<path d="M1316 3692 c-12 -11 -6 -42 8 -42 7 0 19 -7 26 -15 19 -23 30 -18 30
13 0 21 -7 30 -29 39 -17 6 -32 8 -35 5z"/>
<path d="M2288 3682 c-15 -7 -37 -25 -51 -41 -19 -23 -30 -28 -51 -24 -17 4
-25 10 -22 18 2 7 -1 21 -7 30 -10 13 -18 14 -41 6 -24 -10 -27 -15 -21 -40 4
-19 1 -41 -9 -59 l-15 -29 39 -18 c40 -18 40 -18 78 9 21 14 47 26 59 26 24 0
48 24 38 40 -8 14 4 50 17 50 13 0 92 -79 100 -101 8 -19 116 -45 130 -31 17
17 4 46 -25 60 -15 7 -39 31 -52 52 -41 65 -102 84 -167 52z"/>
<path d="M1840 3670 c0 -5 4 -10 9 -10 6 0 13 5 16 10 3 6 -1 10 -9 10 -9 0
-16 -4 -16 -10z"/>
<path d="M904 3616 c-8 -20 44 -67 71 -63 28 3 30 33 3 50 -39 25 -67 30 -74
13z"/>
<path d="M1117 3624 c-13 -13 15 -34 45 -34 23 0 29 4 26 18 -3 17 -57 30 -71
16z"/>
<path d="M1532 3609 c-7 -10 -20 -19 -31 -19 -27 0 -81 -21 -81 -31 0 -6 -15
-26 -34 -44 -34 -36 -72 -45 -93 -24 -16 16 -53 1 -53 -21 0 -13 11 -22 38
-29 49 -14 45 -16 92 24 23 19 46 35 52 35 5 0 17 7 26 16 11 11 27 15 54 11
39 -5 47 3 28 33 -6 10 -3 21 11 36 11 12 17 24 12 27 -5 3 -14 -3 -21 -14z"/>
<path d="M2718 3560 c-15 -20 -29 -28 -40 -24 -10 3 -18 1 -18 -5 0 -29 81
-19 102 13 27 40 -13 54 -44 16z"/>
<path d="M1975 3510 c3 -5 17 -10 31 -10 13 0 24 5 24 10 0 6 -14 10 -31 10
-17 0 -28 -4 -24 -10z"/>
<path d="M1626 3483 l-30 -16 29 -15 c27 -14 30 -13 47 8 31 39 6 52 -46 23z"/>
<path d="M2818 3400 c-14 -10 -31 -33 -38 -50 -10 -24 -19 -30 -44 -32 -41 -2
-68 1 -86 9 -8 3 -26 8 -40 10 -14 2 -35 9 -48 15 -16 8 -25 9 -33 1 -14 -14
-3 -33 20 -33 20 0 46 -26 55 -55 5 -18 13 -20 86 -17 76 3 81 5 97 33 10 16
25 29 35 29 21 0 24 6 32 68 7 47 0 51 -36 22z"/>
<path d="M1837 3378 c-17 -13 -16 -15 11 -41 24 -23 35 -27 78 -24 47 4 104
23 104 36 -1 31 -47 42 -125 31 -11 -1 -27 0 -35 4 -9 3 -24 1 -33 -6z"/>
<path d="M1105 3357 c-4 -10 -5 -21 -1 -24 10 -10 18 4 13 24 -4 17 -4 17 -12
0z"/>
<path d="M923 3344 c-9 -4 -9 -13 -1 -36 10 -29 9 -33 -17 -54 -27 -21 -27
-44 -1 -44 7 0 25 14 41 30 16 17 36 30 44 30 17 1 51 23 51 34 0 3 -7 6 -15
6 -9 0 -25 9 -37 20 -21 19 -41 24 -65 14z"/>
<path d="M140 3325 c-7 -9 -10 -18 -6 -22 8 -9 56 14 56 27 0 15 -36 12 -50
-5z"/>
<path d="M2010 3310 c0 -11 6 -20 13 -20 19 0 27 10 20 26 -8 21 -33 17 -33
-6z"/>
<path d="M2314 3299 c-10 -18 9 -27 44 -22 26 4 30 8 21 19 -14 17 -55 19 -65
3z"/>
<path d="M2400 3280 c0 -9 31 -30 44 -30 16 0 3 18 -19 28 -14 7 -25 8 -25 2z"/>
<path d="M2103 3243 c-56 -3 -73 -7 -73 -18 0 -10 10 -15 29 -15 21 0 39 -10
59 -31 26 -27 32 -30 51 -19 12 6 26 21 30 33 9 22 -3 59 -17 55 -4 -1 -40 -4
-79 -5z"/>
<path d="M2405 3214 c-15 -12 -34 -14 -72 -11 -57 6 -73 -4 -49 -29 26 -25 18
-37 -41 -66 -41 -21 -59 -25 -73 -18 -26 14 -40 12 -40 -4 0 -16 12 -21 73
-32 27 -4 43 -2 55 9 9 8 27 18 39 21 12 4 36 23 53 43 27 30 35 34 53 26 29
-13 46 -6 58 24 6 18 6 30 -2 39 -15 18 -29 17 -54 -2z"/>
<path d="M747 3153 c-15 -14 -7 -43 12 -43 50 0 71 32 29 44 -29 7 -33 7 -41
-1z"/>
<path d="M839 3123 c-1 -5 -1 -12 0 -17 1 -6 -3 -20 -9 -32 -10 -18 -9 -27 11
-53 33 -44 79 -40 137 12 21 20 21 21 4 38 -10 9 -28 20 -39 23 -12 4 -27 13
-33 21 -13 15 -69 21 -71 8z"/>
<path d="M90 2515 c-9 -11 -16 -13 -24 -5 -5 5 -23 10 -38 10 l-28 0 0 -286 0
-285 23 6 c49 14 206 95 268 138 76 54 152 131 175 181 17 34 17 35 -14 74
-37 46 -87 86 -122 97 -14 4 -29 11 -35 15 -15 10 -96 38 -135 45 -19 4 -40
11 -46 16 -7 6 -16 3 -24 -6z m-55 -155 c3 -5 1 -10 -4 -10 -6 0 -11 5 -11 10
0 6 2 10 4 10 3 0 8 -4 11 -10z m345 -21 c0 -5 -4 -9 -10 -9 -5 0 -10 7 -10
16 0 8 5 12 10 9 6 -3 10 -10 10 -16z"/>
<path d="M420 2482 c0 -21 7 -35 20 -42 17 -9 20 -8 20 13 0 13 -9 32 -20 42
-20 18 -20 17 -20 -13z"/>
<path d="M471 2410 c0 -14 4 -34 9 -45 8 -18 9 -18 9 5 0 14 -4 34 -9 45 -8
18 -9 18 -9 -5z"/>
<path d="M5029 973 c0 -5 -2 -16 -4 -25 -2 -11 3 -18 12 -18 9 0 13 6 9 15 -3
8 -1 15 4 15 6 0 10 5 10 10 0 11 -30 14 -31 3z"/>
<path d="M5476 862 c-3 -5 -23 -14 -45 -22 -23 -7 -41 -17 -41 -21 0 -5 -6 -6
-14 -3 -21 8 -28 -12 -10 -30 13 -14 13 -16 0 -16 -13 0 -13 -4 1 -31 13 -25
17 -29 24 -16 8 13 13 13 44 -3 20 -10 42 -24 50 -30 13 -11 15 1 15 84 0 85
-8 114 -24 88z m-71 -102 c3 -5 1 -10 -4 -10 -6 0 -11 5 -11 10 0 6 2 10 4 10
3 0 8 -4 11 -10z"/>
<path d="M4715 840 c3 -5 8 -10 11 -10 2 0 4 5 4 10 0 6 -5 10 -11 10 -5 0 -7
-4 -4 -10z"/>
<path d="M4790 822 c0 -11 24 -22 48 -22 21 0 5 15 -25 25 -13 3 -23 2 -23 -3z"/>
<path d="M4174 756 c-9 -20 -9 -26 4 -31 19 -7 21 -5 24 25 4 31 -14 35 -28 6z"/>
<path d="M4706 772 c-3 -4 4 -9 15 -9 23 -2 25 3 4 10 -8 4 -16 3 -19 -1z"/>
<path d="M5258 733 c7 -3 16 -2 19 1 4 3 -2 6 -13 5 -11 0 -14 -3 -6 -6z"/>
<path d="M5330 710 c0 -5 5 -10 10 -10 6 0 10 5 10 10 0 6 -4 10 -10 10 -5 0
-10 -4 -10 -10z"/>
<path d="M4867 694 c-3 -3 -3 -13 0 -21 5 -12 7 -12 14 -1 15 23 4 40 -14 22z"/>
<path d="M5275 671 c-3 -5 -1 -12 5 -16 5 -3 10 1 10 9 0 18 -6 21 -15 7z"/>
<path d="M4460 656 c0 -2 7 -6 15 -10 8 -3 15 -1 15 4 0 6 -7 10 -15 10 -8 0
-15 -2 -15 -4z"/>
<path d="M5460 633 c0 -4 9 -14 21 -21 18 -12 20 -11 17 5 -3 17 -38 32 -38
16z"/>
<path d="M4557 573 c-10 -9 -8 -33 2 -33 5 0 11 9 14 20 5 20 -3 26 -16 13z"/>
<path d="M4495 560 c3 -5 8 -10 11 -10 2 0 4 5 4 10 0 6 -5 10 -11 10 -5 0 -7
-4 -4 -10z"/>
<path d="M2445 540 c-10 -15 -7 -17 50 -23 44 -4 48 -4 30 9 -10 8 -24 14 -31
14 -7 0 -19 3 -27 6 -8 3 -18 0 -22 -6z"/>
<path d="M4670 479 c0 -5 5 -7 10 -4 6 3 10 8 10 11 0 2 -4 4 -10 4 -5 0 -10
-5 -10 -11z"/>
<path d="M2602 438 c6 -18 28 -21 28 -4 0 9 -7 16 -16 16 -9 0 -14 -5 -12 -12z"/>
<path d="M2720 440 c0 -5 7 -10 16 -10 8 0 12 5 9 10 -3 6 -10 10 -16 10 -5 0
-9 -4 -9 -10z"/>
<path d="M4612 387 c2 -28 12 -35 24 -16 3 6 -1 18 -10 27 -15 15 -16 14 -14
-11z"/>
<path d="M2765 375 c17 -7 32 -11 35 -9 7 8 -24 24 -45 23 -15 0 -13 -4 10
-14z"/>
<path d="M4350 320 c0 -5 5 -10 10 -10 6 0 10 5 10 10 0 6 -4 10 -10 10 -5 0
-10 -4 -10 -10z"/>
<path d="M4710 92 c6 -13 14 -21 18 -18 3 4 -2 14 -12 24 -18 16 -18 16 -6 -6z"/>
<path d="M3761 35 c-13 -7 -32 -10 -43 -7 -12 3 -18 -1 -18 -12 0 -21 92 -23
109 -2 19 22 -17 38 -48 21z"/>
<path d="M4328 3 c7 -3 16 -2 19 1 4 3 -2 6 -13 5 -11 0 -14 -3 -6 -6z"/>
</g>
</svg>
