<?xml version="1.0" standalone="no"?>
<!DOCTYPE svg PUBLIC "-//W3C//DTD SVG 20010904//EN"
 "http://www.w3.org/TR/2001/REC-SVG-20010904/DTD/svg10.dtd">
<svg version="1.0" xmlns="http://www.w3.org/2000/svg"
 width="275.000000pt" height="183.000000pt" viewBox="0 0 275.000000 183.000000"
 preserveAspectRatio="xMidYMid meet">

<g transform="translate(0.000000,183.000000) scale(0.100000,-0.100000)"
fill="#000000" stroke="none">
<path d="M0 915 l0 -915 1375 0 1375 0 0 205 0 205 -97 2 c-54 1 -126 3 -160
3 -34 0 -65 3 -69 8 -4 4 -21 7 -38 7 -26 0 -122 22 -166 37 -8 3 -24 7 -35 9
-36 7 -50 10 -67 17 -10 4 -26 9 -35 12 -14 5 -11 9 12 21 16 8 37 13 47 11
10 -3 18 -1 18 5 0 5 9 6 21 3 15 -5 25 -1 35 14 17 24 54 27 84 9 16 -10 24
-10 38 0 42 30 72 27 72 -7 0 -24 -36 -37 -76 -27 -22 6 -25 4 -19 -14 4 -12
2 -20 -5 -20 -6 0 -8 -4 -5 -10 3 -5 23 -10 43 -9 l37 1 -29 12 -28 13 33 7
c19 4 35 2 39 -4 4 -6 15 -8 25 -4 15 6 17 4 13 -14 -8 -27 6 -28 32 -2 17 17
36 20 150 22 l130 3 0 658 0 657 -441 0 c-415 0 -440 -1 -435 -17 3 -10 10
-37 16 -60 6 -23 14 -44 18 -47 5 -3 19 8 32 25 26 30 60 39 60 15 0 -7 11
-21 25 -30 14 -9 25 -24 25 -33 0 -8 9 -31 21 -50 17 -27 20 -43 14 -78 -4
-30 -3 -45 4 -45 13 0 -4 -33 -33 -63 -15 -16 -34 -20 -90 -22 -40 -1 -76 -4
-82 -7 -8 -5 -131 -12 -160 -9 -6 1 -16 13 -22 27 -7 14 -17 22 -23 18 -28
-17 -108 -31 -118 -21 -16 16 -14 25 8 32 17 5 17 7 -3 48 -12 23 -26 49 -31
57 -5 8 -9 27 -9 44 -1 41 -23 44 -34 4 l-8 -33 -65 0 c-104 0 -116 -31 -21
-54 96 -25 122 -35 122 -48 0 -21 3 -27 18 -42 12 -13 12 -16 -4 -28 -11 -8
-28 -12 -39 -11 -16 2 -20 10 -18 36 1 26 -2 32 -15 29 -15 -3 -41 8 -102 42
-58 32 -60 32 -90 14 -16 -9 -27 -20 -25 -24 3 -3 31 -9 64 -13 33 -4 64 -13
71 -20 6 -8 22 -17 35 -20 32 -8 32 -20 -2 -36 -43 -20 -215 -28 -238 -11 -5
4 -28 7 -50 6 -38 -1 -40 -3 -43 -36 -2 -19 -7 -38 -12 -43 -14 -14 -40 13
-40 40 0 23 -2 24 -84 24 -63 0 -87 -4 -96 -15 -12 -14 -15 -13 -32 5 -14 15
-31 20 -67 20 -26 0 -63 5 -80 11 -23 8 -39 8 -54 1 -44 -22 -106 -25 -142 -7
-19 9 -35 20 -35 24 0 4 -29 11 -65 14 -96 9 -170 33 -191 64 -20 27 -25 31
-63 63 -13 11 -19 20 -13 20 20 0 14 69 -8 92 -13 14 -19 34 -18 59 1 34 5 39
47 57 25 12 53 23 61 26 8 2 -31 5 -87 5 l-103 1 0 -915z m444 470 c3 -8 1
-15 -4 -15 -6 0 -10 7 -10 15 0 8 2 15 4 15 2 0 6 -7 10 -15z m1339 -255 c24
0 17 -24 -9 -28 -14 -2 -16 -1 -6 6 11 7 9 10 -7 15 -12 3 -21 11 -21 18 0 10
3 10 12 1 7 -7 20 -12 31 -12z m87 -16 c0 -8 -4 -12 -10 -9 -5 3 -10 13 -10
21 0 8 5 12 10 9 6 -3 10 -13 10 -21z m-220 -15 c0 -5 -4 -9 -10 -9 -5 0 -10
7 -10 16 0 8 5 12 10 9 6 -3 10 -10 10 -16z m-32 -32 c0 -15 -7 -23 -19 -24
-11 -1 -19 2 -19 8 0 5 5 9 11 9 5 0 8 4 5 9 -4 5 0 12 6 14 7 3 14 6 14 6 1
1 2 -9 2 -22z m-382 -24 c-10 -10 -19 5 -10 18 6 11 8 11 12 0 2 -7 1 -15 -2
-18z m55 4 c-10 -9 -11 -8 -5 6 3 10 9 15 12 12 3 -3 0 -11 -7 -18z m-355 -54
c-3 -8 -6 -17 -6 -19 0 -2 -4 -4 -10 -4 -5 0 -10 11 -10 25 0 18 4 23 16 18 8
-3 13 -12 10 -20z m351 21 c-3 -3 -12 -4 -19 -1 -8 3 -5 6 6 6 11 1 17 -2 13
-5z m240 -8 c-13 -10 -15 -15 -5 -19 7 -2 1 -4 -13 -3 -31 1 -28 23 4 29 12 2
24 5 27 5 3 1 -3 -5 -13 -12z m91 -5 c11 -7 10 -9 -3 -14 -9 -4 -13 -3 -10 3
4 6 -7 7 -27 4 -25 -4 -29 -3 -18 5 18 13 40 14 58 2z m148 -26 c-9 -9 -16
-21 -16 -26 0 -5 -18 -9 -39 -8 -50 3 -44 25 10 34 21 4 42 11 45 17 3 5 8 7
11 4 3 -3 -2 -12 -11 -21z m128 16 c4 -5 -3 -7 -14 -4 -23 6 -26 13 -6 13 8 0
17 -4 20 -9z m106 -6 c0 -2 -7 -5 -15 -9 -9 -3 -15 0 -15 9 0 9 6 12 15 9 8
-4 15 -7 15 -9z m-535 -5 c-3 -5 -16 -10 -28 -9 -20 1 -20 2 3 9 14 4 26 8 28
9 2 1 0 -3 -3 -9z m-605 -16 c0 -17 -22 -14 -28 4 -2 7 3 12 12 12 9 0 16 -7
16 -16z m295 -4 c3 -5 1 -10 -4 -10 -6 0 -11 5 -11 10 0 6 2 10 4 10 3 0 8 -4
11 -10z m139 -15 c-25 -19 -40 -19 -24 0 7 8 20 15 28 15 13 0 12 -3 -4 -15z
m97 -8 c-10 -9 -11 -8 -5 6 3 10 9 15 12 12 3 -3 0 -11 -7 -18z m-30 -7 c5 0
9 -4 9 -10 0 -13 -57 -13 -64 -1 -7 11 14 21 32 15 8 -2 18 -4 23 -4z m181 0
c2 5 19 5 38 1 32 -7 33 -8 15 -18 -15 -8 -33 -8 -68 1 -26 7 -45 15 -41 18 3
4 17 3 29 -2 14 -5 25 -5 27 0z m591 -5 c-3 -9 -8 -14 -10 -11 -3 3 -2 9 2 15
9 16 15 13 8 -4z m-1373 1 c0 -3 -4 -8 -10 -11 -5 -3 -10 -1 -10 4 0 6 5 11
10 11 6 0 10 -2 10 -4z m675 -5 c-6 -5 -21 -12 -35 -16 -24 -7 -24 -7 -5 9 21
16 56 23 40 7z m212 3 c-3 -3 -12 -4 -19 -1 -8 3 -5 6 6 6 11 1 17 -2 13 -5z
m83 -14 c0 -5 7 -10 15 -10 8 0 15 -4 15 -10 0 -5 -18 -10 -40 -10 -31 0 -38
3 -34 15 4 8 10 12 15 9 5 -3 9 0 9 5 0 6 5 11 10 11 6 0 10 -4 10 -10z m-652
-31 c-18 -11 44 -3 87 11 31 10 40 10 43 0 4 -10 6 -10 12 1 7 10 11 10 24 0
8 -7 20 -10 25 -7 5 4 13 2 16 -4 4 -6 1 -9 -7 -8 -7 2 -12 -5 -12 -14 1 -10
-2 -15 -7 -12 -5 3 -9 0 -9 -6 0 -7 -7 -9 -16 -6 -8 3 -13 2 -10 -2 2 -4 -16
-8 -40 -9 -24 -1 -46 2 -49 6 -8 15 -54 0 -48 -15 6 -15 -31 -12 -92 7 -19 6
-31 6 -33 0 -2 -6 -12 -7 -28 -1 -31 12 -52 4 -56 -23 -2 -16 -11 -23 -31 -25
-28 -3 -28 -3 -10 16 10 10 21 17 25 15 5 -2 7 6 5 19 -2 20 2 23 27 20 21 -3
27 0 24 10 -4 8 1 14 11 14 9 1 25 5 35 9 15 6 17 5 11 -5 -6 -10 0 -12 28 -7
28 4 35 3 30 -9 -3 -8 1 -14 11 -14 22 0 20 19 -4 46 l-21 21 35 -11 c19 -6
30 -14 24 -17z m592 23 c0 -9 -44 -32 -59 -32 -5 0 -11 7 -15 15 -4 13 -2 14
14 5 11 -6 20 -7 19 -3 -1 4 -1 11 0 16 1 10 41 9 41 -1z m365 0 c6 -4 18 -17
28 -29 18 -20 18 -22 1 -48 -29 -44 -296 -165 -364 -165 -16 0 -32 -4 -35 -10
-10 -16 -45 -12 -45 6 0 8 -4 12 -10 9 -5 -3 -10 1 -10 9 0 9 7 16 15 16 20 0
19 19 -1 27 -10 4 -22 -1 -30 -12 -11 -14 -10 -21 3 -41 9 -14 14 -27 11 -29
-2 -3 -40 -10 -83 -17 -61 -9 -80 -9 -83 0 -5 17 -22 15 -22 -2 0 -8 -12 -17
-27 -21 -93 -23 -561 -34 -678 -15 -33 5 -94 11 -135 14 -120 8 -187 26 -175
46 3 5 -2 13 -11 18 -15 8 -15 10 0 15 10 4 15 3 11 -3 -3 -6 1 -10 9 -10 9 0
15 3 13 8 -3 10 10 13 29 5 8 -3 27 0 42 6 24 10 25 10 8 -3 -17 -14 -15 -15
20 -22 52 -9 62 -16 38 -26 -18 -8 -18 -8 1 -5 11 1 20 7 20 12 0 18 16 35 33
35 13 0 13 -2 -4 -15 -18 -13 -17 -14 11 -10 17 2 45 10 63 17 28 11 34 11 42
-2 7 -10 10 -11 10 -2 0 6 7 12 15 12 9 0 25 9 37 20 l22 20 17 -27 c23 -34
39 -43 64 -32 18 7 17 8 -6 8 -22 1 -26 6 -27 32 -1 25 2 28 14 19 7 -7 11
-17 8 -22 -4 -6 2 -8 15 -3 14 4 21 2 21 -7 0 -7 8 -18 19 -25 24 -15 62 -6
54 14 -4 9 2 16 16 20 11 3 21 10 21 15 0 6 -7 7 -16 4 -9 -3 -22 -6 -30 -6
-11 0 -13 -6 -8 -22 6 -19 3 -18 -20 7 -14 15 -26 32 -26 36 0 5 -3 8 -7 7
-14 -4 -53 13 -53 23 0 6 7 6 19 -1 25 -13 34 -13 26 0 -3 6 -1 10 4 10 6 0
11 -4 11 -10 0 -5 9 -10 20 -10 11 0 20 -4 20 -10 0 -5 9 -10 19 -10 28 0 37
20 9 21 -13 0 -17 3 -10 6 8 3 25 0 38 -7 19 -11 26 -11 39 0 8 7 18 10 22 6
3 -3 0 -6 -7 -6 -7 0 -11 -2 -8 -5 8 -9 38 6 32 16 -3 5 2 9 11 9 15 0 15 -4
-4 -35 -11 -19 -18 -35 -16 -35 3 0 23 17 45 38 29 26 49 37 72 38 18 0 32 5
31 11 -1 6 9 8 23 5 26 -5 64 -50 57 -69 -2 -6 6 -17 18 -23 19 -11 21 -10 16
4 -7 18 4 21 20 5 7 -7 22 -7 52 1 32 8 41 15 41 33 0 17 -2 19 -9 8 -5 -8
-29 -15 -58 -17 -42 -2 -50 1 -60 22 -14 31 -6 36 28 19 15 -8 30 -11 33 -6 9
14 139 9 154 -6 23 -22 46 -14 63 22 9 19 13 35 8 35 -5 0 -1 8 9 18 14 14 31
18 65 16 26 -2 47 1 47 7 0 5 -5 9 -12 9 -6 0 -9 2 -7 5 3 2 15 2 27 -2 18 -4
20 -8 11 -19 -9 -11 -5 -15 20 -20 17 -4 31 -12 31 -19 0 -16 19 -23 43 -17
14 4 15 7 5 19 -10 12 -9 15 7 13 42 -5 54 0 49 18 -4 10 -2 13 3 7 4 -5 32
-11 61 -12 49 -3 52 -2 37 13 -13 14 -14 19 -4 25 8 5 17 3 21 -4 4 -7 8 -8 8
-3 0 5 -7 18 -17 28 -16 18 -8 25 12 10z m-715 -12 c0 -5 -2 -10 -4 -10 -3 0
-8 5 -11 10 -3 6 -1 10 4 10 6 0 11 -4 11 -10z m115 0 c-3 -5 -12 -10 -18 -10
-7 0 -6 4 3 10 19 12 23 12 15 0z m120 0 c-3 -5 -1 -10 5 -10 18 0 2 -19 -30
-35 -20 -10 -35 -12 -52 -6 -13 6 -17 10 -9 10 8 1 11 4 8 8 -4 4 10 15 30 24
43 21 57 23 48 9z m440 -10 c-3 -5 -14 -10 -23 -10 -15 0 -15 2 -2 10 20 13
33 13 25 0z m-1275 -10 c0 -5 -12 -10 -27 -9 -25 0 -26 1 -8 9 27 12 35 12 35
0z m680 -16 c0 -2 -7 -4 -15 -4 -8 0 -15 4 -15 10 0 5 7 7 15 4 8 -4 15 -8 15
-10z m-627 -18 c4 -10 1 -13 -7 -10 -8 3 -17 1 -21 -5 -3 -6 -14 -11 -23 -11
-14 1 -13 4 7 20 28 24 37 25 44 6z m546 1 c15 -19 2 -29 -15 -12 -8 7 -14 16
-14 19 0 11 17 6 29 -7z m285 1 c-7 -11 -34 -10 -34 1 0 6 9 9 19 8 11 0 17
-5 15 -9z m-919 -10 c-42 -15 -55 -27 -54 -52 0 -16 2 -17 7 -6 12 28 37 17
37 -15 0 -28 -2 -30 -33 -27 -18 1 -42 -3 -54 -9 -14 -8 -23 -8 -31 0 -6 6
-18 11 -26 11 -9 0 -23 5 -31 10 -13 8 -12 11 5 23 10 8 26 12 34 9 9 -3 12
-1 7 6 -8 13 20 27 54 26 14 0 36 8 49 18 13 10 33 18 45 17 17 0 15 -3 -9
-11z m750 2 c3 -5 -1 -10 -10 -10 -9 0 -13 5 -10 10 3 6 8 10 10 10 2 0 7 -4
10 -10z m-623 -42 c-2 -10 -13 -18 -24 -18 -14 0 -18 -5 -14 -15 3 -8 -3 -19
-14 -25 -27 -15 -29 -13 -23 21 3 19 1 29 -6 25 -5 -4 -13 -1 -17 5 -5 8 0 10
17 6 13 -3 32 0 41 7 25 19 46 16 40 -6z m-417 -58 c-3 -5 -14 -10 -23 -10
-15 0 -15 2 -2 10 20 13 33 13 25 0z m1602 -14 c0 -8 -6 -12 -15 -9 -11 5 -11
7 0 14 7 5 13 9 14 9 0 0 1 -6 1 -14z m-1522 -6 c-3 -5 -12 -10 -18 -10 -7 0
-6 4 3 10 19 12 23 12 15 0z m245 -6 c0 -8 -4 -12 -10 -9 -5 3 -10 10 -10 16
0 5 5 9 10 9 6 0 10 -7 10 -16z m1224 -12 c9 -16 -48 -60 -86 -67 -38 -7 -49
-19 -25 -28 6 -3 2 -6 -10 -6 -19 -1 -21 2 -14 22 5 12 15 22 22 22 16 0 49
30 49 46 0 5 4 8 8 5 4 -2 14 -1 22 5 19 11 27 11 34 1z m211 -2 c-3 -5 -11
-10 -16 -10 -6 0 -7 5 -4 10 3 6 11 10 16 10 6 0 7 -4 4 -10z m-315 -30 c0 -5
-5 -10 -11 -10 -5 0 -7 5 -4 10 3 6 8 10 11 10 2 0 4 -4 4 -10z m-48 -24 c-11
-6 -22 -15 -24 -21 -4 -12 -21 -8 -26 6 -6 16 -22 10 -22 -9 0 -11 -11 -24
-25 -30 -14 -6 -25 -16 -25 -22 0 -5 -7 -10 -16 -10 -8 0 -13 4 -9 10 3 5 0
19 -7 30 -11 17 -11 22 2 30 10 7 18 5 27 -6 10 -13 13 -13 30 5 20 21 80 41
102 33 10 -4 8 -8 -7 -16z m333 4 c-3 -5 -13 -10 -21 -10 -8 0 -13 -3 -10 -8
2 -4 -16 -7 -40 -8 -24 0 -44 3 -44 7 0 4 -15 9 -32 12 -18 2 0 4 40 4 41 1
76 4 79 7 10 10 35 7 28 -4z m-128 -26 c-3 -3 -12 -4 -19 -1 -8 3 -5 6 6 6 11
1 17 -2 13 -5z m-397 -12 c0 -4 -4 -22 -10 -41 -8 -28 -6 -37 8 -48 17 -13 77
-12 115 3 10 3 17 1 17 -5 0 -6 -11 -11 -24 -11 -13 0 -29 -7 -36 -15 -10 -13
-9 -15 11 -15 19 0 21 -2 9 -10 -8 -5 -41 -10 -72 -10 -31 0 -68 -4 -82 -9
-15 -6 -37 -6 -58 0 -22 6 -34 6 -36 -1 -2 -6 -8 -8 -12 -5 -5 3 -5 -9 0 -27
6 -17 8 -33 7 -34 -7 -7 -147 -25 -207 -26 -36 -1 -92 1 -125 6 -33 4 -72 9
-86 9 -14 1 -33 10 -43 20 -17 16 -16 17 6 17 19 1 20 2 7 10 -9 5 -40 8 -68
7 -54 -4 -77 7 -41 18 11 4 18 11 14 16 -3 5 -9 7 -14 4 -5 -3 -11 -1 -15 5
-4 6 10 10 36 10 34 0 39 -2 30 -14 -9 -11 -7 -15 6 -18 10 -3 27 -2 38 2 18
7 19 8 3 15 -40 16 -14 26 60 22 61 -4 72 -3 52 6 -20 9 -120 14 -325 17 -13
0 -21 7 -22 19 -2 24 30 30 152 30 218 0 395 10 486 27 23 4 28 0 38 -27 14
-40 14 -39 -6 -39 -9 0 -13 -3 -9 -7 10 -10 46 -11 40 -1 -3 4 8 7 25 6 38 -4
42 16 4 20 -37 5 -47 16 -34 40 14 26 107 36 117 12 5 -12 8 -10 15 8 8 20 29
31 29 14z m370 -12 c0 -5 -9 -10 -19 -10 -10 0 -21 -7 -25 -15 -3 -10 -19 -15
-44 -15 -21 0 -42 -3 -46 -7 -4 -5 -41 -8 -81 -8 -40 0 -71 3 -68 8 2 4 13 7
24 7 11 0 27 7 36 15 11 11 19 13 27 5 7 -5 16 -7 20 -3 4 4 27 9 51 10 24 2
54 7 67 12 31 13 58 13 58 1z m60 6 c0 -3 -4 -8 -10 -11 -5 -3 -10 -1 -10 4 0
6 5 11 10 11 6 0 10 -2 10 -4z m-1380 -146 c8 -5 35 -4 60 0 61 12 82 12 75 0
-3 -5 -2 -10 4 -10 5 0 11 4 13 10 2 6 9 6 18 0 23 -14 -49 -40 -112 -40 -29
0 -48 -4 -42 -8 10 -10 256 -84 354 -107 37 -8 113 -15 178 -15 95 0 140 6
290 40 97 22 236 46 307 55 72 8 164 20 205 26 41 5 145 12 230 15 136 4 152
3 130 -9 -17 -9 -92 -18 -230 -25 -297 -17 -530 -50 -770 -109 -146 -37 -266
-36 -370 1 -120 44 -215 74 -365 118 -77 22 -147 44 -155 50 -11 6 -9 7 7 3
13 -4 44 -3 70 1 38 6 44 9 28 15 -13 5 -5 6 20 2 22 -3 47 -9 55 -13z m850
-26 c0 -10 -33 -33 -47 -34 -7 0 -13 9 -13 20 0 16 7 20 30 20 17 0 30 -3 30
-6z m313 -1 c10 -10 -25 -32 -52 -33 -23 0 -24 1 -6 20 18 20 46 26 58 13z
m570 -140 c-7 -2 -19 -2 -25 0 -7 3 -2 5 12 5 14 0 19 -2 13 -5z m-303 -23 c0
-5 -5 -10 -11 -10 -5 0 -7 5 -4 10 3 6 8 10 11 10 2 0 4 -4 4 -10z m347 -106
c-3 -3 -12 -4 -19 -1 -8 3 -5 6 6 6 11 1 17 -2 13 -5z m-547 -108 c0 -11 -19
-15 -25 -6 -3 5 1 10 9 10 9 0 16 -2 16 -4z"/>
<path d="M2045 850 c-3 -5 -1 -10 4 -10 6 0 11 5 11 10 0 6 -2 10 -4 10 -3 0
-8 -4 -11 -10z"/>
<path d="M1768 734 c-11 -10 3 -34 19 -34 8 0 13 7 11 17 -3 18 -20 27 -30 17z"/>
<path d="M1030 711 c0 -10 19 -25 25 -20 1 2 -3 10 -11 17 -8 7 -14 8 -14 3z"/>
<path d="M1275 710 c3 -5 8 -10 11 -10 2 0 4 5 4 10 0 6 -5 10 -11 10 -5 0 -7
-4 -4 -10z"/>
<path d="M1010 670 c0 -5 5 -10 11 -10 5 0 7 5 4 10 -3 6 -8 10 -11 10 -2 0
-4 -4 -4 -10z"/>
<path d="M1190 640 c0 -5 5 -10 10 -10 6 0 10 5 10 10 0 6 -4 10 -10 10 -5 0
-10 -4 -10 -10z"/>
<path d="M1525 870 c-3 -5 -2 -10 4 -10 5 0 13 5 16 10 3 6 2 10 -4 10 -5 0
-13 -4 -16 -10z"/>
<path d="M523 743 c9 -2 23 -2 30 0 6 3 -1 5 -18 5 -16 0 -22 -2 -12 -5z"/>
<path d="M1905 670 c4 -6 11 -8 16 -5 14 9 11 15 -7 15 -8 0 -12 -5 -9 -10z"/>
<path d="M1468 543 c6 -2 18 -2 25 0 6 3 1 5 -13 5 -14 0 -19 -2 -12 -5z"/>
<path d="M1208 493 c7 -3 16 -2 19 1 4 3 -2 6 -13 5 -11 0 -14 -3 -6 -6z"/>
<path d="M665 1753 c4 -43 7 -88 6 -101 -2 -56 54 -135 106 -148 33 -9 63 12
63 44 0 15 -9 56 -20 90 -27 85 -27 142 -1 142 22 0 51 -25 51 -43 0 -17 34
-97 41 -97 10 0 69 79 69 93 0 8 9 22 20 32 11 10 20 29 20 42 l0 23 -181 0
-182 0 8 -77z"/>
<path d="M1390 1816 c0 -24 45 -81 73 -90 35 -13 43 -3 51 57 l7 47 -65 0
c-49 0 -66 -4 -66 -14z"/>
<path d="M1902 1678 c-8 -8 -48 -13 -110 -15 -53 -1 -110 -6 -127 -12 -25 -8
-26 -9 -8 -10 17 -1 21 -5 16 -18 -4 -11 -3 -14 5 -9 7 4 12 2 12 -4 0 -8 10
-9 31 -5 24 5 36 2 55 -16 20 -19 28 -21 48 -11 28 13 36 7 36 -24 0 -27 20
-74 31 -74 11 0 23 46 15 58 -3 5 1 29 9 53 17 51 9 109 -13 87z"/>
<path d="M1678 1556 c-18 -13 -26 -76 -10 -76 13 0 29 15 41 39 11 19 10 26
-1 37 -11 10 -16 10 -30 0z"/>
</g>
</svg>
